# Blender v2.79 (sub 0) OBJ File: ''
# www.blender.org
o (null).001_(null).003
v -0.291184 4.172415 1.803552
v -0.635516 4.181358 1.799999
v -1.009112 4.177339 1.805256
v -1.283446 4.163585 1.813676
v -1.167136 3.603132 2.165771
v 1.797879 3.587862 2.124376
v 1.098512 3.975574 1.917074
v 0.833220 4.048402 1.872573
v 0.340509 4.123523 1.829764
v 0.022650 4.153724 1.813124
v 2.158488 3.352909 2.239347
v -1.008387 2.958794 2.491901
v 2.230374 2.847871 2.464849
v -1.491361 3.222209 -2.352241
v -1.664883 3.056988 -2.430428
v -3.440627 3.138126 -2.339880
v -3.484096 3.154930 -2.330042
v -3.520674 3.204346 -2.303149
v -3.545931 3.273509 -2.265996
v -3.542838 3.308554 -2.247517
v -3.499354 3.398036 -2.201087
v -3.412968 3.481487 -2.157060
v -3.305345 3.545730 -2.127212
v -3.069726 3.681823 -2.061540
v -1.497154 3.618072 -2.153094
v -2.761937 3.819871 -1.995510
v -2.595688 3.881029 -1.967009
v -2.408000 3.938538 -1.940701
v -2.188003 3.990130 -1.917715
v -1.957450 4.036756 -1.896829
v -1.720917 4.075465 -1.879215
v -1.504540 4.096807 -1.869555
v 0.340510 4.123524 -1.829762
v 0.833220 4.048403 -1.872572
v 1.098512 3.975574 -1.917073
v 1.797879 3.587863 -2.124376
v -1.167136 3.603132 -2.165771
v -1.283446 4.163586 -1.813675
v -1.009112 4.177340 -1.805255
v -0.635515 4.181359 -1.799998
v -0.291183 4.172416 -1.803551
v 0.022650 4.153725 -1.813123
v 2.158488 3.352910 -2.239347
v 2.230374 2.847871 -2.464848
v -1.008387 2.958795 -2.491901
v 1.428896 4.127292 0.995493
v 1.392898 4.099577 1.483160
v 2.103860 3.707645 1.675679
v 2.171802 3.737275 1.142989
v 1.458391 4.147264 0.000001
v 1.453519 4.144131 0.439736
v 2.214520 3.757602 0.470367
v 2.219393 3.765901 0.000000
v 2.837253 3.268574 1.876231
v 2.752990 3.231702 2.113996
v 3.072863 3.023120 2.168509
v 3.206885 2.968314 2.128244
v 3.319272 2.940599 2.039527
v 2.971340 3.309924 1.309679
v 3.063525 3.326374 0.504540
v 3.082765 3.333238 0.000000
v 1.371537 4.078003 1.634753
v 1.397582 4.047908 1.689897
v 2.026546 3.678141 1.909959
v 3.497537 2.932662 1.775721
v 3.603632 2.938480 1.456481
v 3.725230 2.973347 0.530048
v 3.748448 2.981584 0.000000
v 3.677214 2.957561 1.043026
v 2.171802 3.737275 -1.142988
v 2.103860 3.707646 -1.675678
v 1.392898 4.099578 -1.483159
v 1.428896 4.127292 -0.995492
v 2.214520 3.757602 -0.470366
v 1.453519 4.144131 -0.439735
v 3.072863 3.023120 -2.168509
v 2.752990 3.231703 -2.113995
v 2.837253 3.268574 -1.876231
v 3.319272 2.940599 -2.039526
v 3.206885 2.968315 -2.128243
v 2.971340 3.309925 -1.309678
v 3.063525 3.326374 -0.504539
v 1.397582 4.047909 -1.689896
v 1.371537 4.078004 -1.634752
v 2.026546 3.678141 -1.909958
v 3.603632 2.938481 -1.456481
v 3.497537 2.932662 -1.775721
v 3.725230 2.973347 -0.530047
v 3.677214 2.957562 -1.043025
v -3.412968 3.481487 2.157061
v -3.499354 3.398036 2.201088
v -3.542838 3.308553 2.247519
v -3.545930 3.273509 2.265998
v -3.520674 3.204345 2.303150
v -3.484096 3.154930 2.330043
v -3.440626 3.138126 2.339881
v -1.664882 3.056987 2.430429
v -1.491361 3.222208 2.352242
v -1.497154 3.618071 2.153095
v -3.069726 3.681822 2.061541
v -3.305345 3.545730 2.127213
v -2.761937 3.819870 1.995511
v -1.504540 4.096806 1.869557
v -1.720917 4.075464 1.879217
v -1.957449 4.036755 1.896831
v -2.188003 3.990130 1.917717
v -2.408000 3.938537 1.940703
v -2.595688 3.881028 1.967011
vt 0.279297 0.707031
vt 0.183594 0.710938
vt 0.078125 0.708984
vt 0.001953 0.705078
vt 0.033203 0.521484
vt 0.867188 0.521484
vt 0.671875 0.644531
vt 0.595703 0.667969
vt 0.457031 0.693359
vt 0.369141 0.701172
vt 0.968750 0.447266
vt 0.078125 0.318359
vt 0.990234 0.292969
vt 0.738281 0.392578
vt 0.691406 0.343750
vt 0.207031 0.375000
vt 0.195313 0.378906
vt 0.185547 0.394531
vt 0.179688 0.416016
vt 0.179688 0.427734
vt 0.191406 0.455078
vt 0.214844 0.480469
vt 0.244141 0.500000
vt 0.308594 0.541016
vt 0.736328 0.513672
vt 0.392578 0.582031
vt 0.437500 0.599609
vt 0.488281 0.617188
vt 0.548828 0.632813
vt 0.611328 0.646484
vt 0.675781 0.658203
vt 0.734375 0.664063
vt 0.460938 0.693359
vt 0.599609 0.667969
vt 0.673828 0.644531
vt 0.871094 0.521484
vt 0.037109 0.521484
vt 0.003906 0.705078
vt 0.082031 0.708984
vt 0.185547 0.710938
vt 0.283203 0.707031
vt 0.371094 0.701172
vt 0.972656 0.447266
vt 0.992188 0.292969
vt 0.082031 0.318359
vt 0.273438 0.769531
vt 0.162109 0.773438
vt 0.117188 0.558594
vt 0.238281 0.546875
vt 0.500000 0.763672
vt 0.400391 0.765625
vt 0.392578 0.539063
vt 0.500000 0.539063
vt 0.072266 0.332031
vt 0.017578 0.347656
vt 0.003906 0.246094
vt 0.013672 0.207031
vt 0.033203 0.177734
vt 0.201172 0.306641
vt 0.384766 0.287109
vt 0.500000 0.283203
vt 0.126953 0.775391
vt 0.113281 0.765625
vt 0.064453 0.572266
vt 0.093750 0.136719
vt 0.167969 0.111328
vt 0.378906 0.087891
vt 0.500000 0.083984
vt 0.261719 0.097656
vt 0.761719 0.546875
vt 0.882813 0.558594
vt 0.837891 0.773438
vt 0.726563 0.769531
vt 0.607422 0.539063
vt 0.599609 0.765625
vt 0.996094 0.246094
vt 0.982422 0.347656
vt 0.927734 0.332031
vt 0.966797 0.177734
vt 0.986328 0.207031
vt 0.798828 0.306641
vt 0.615234 0.287109
vt 0.886719 0.765625
vt 0.873047 0.775391
vt 0.935547 0.572266
vt 0.832031 0.111328
vt 0.906250 0.136719
vt 0.621094 0.087891
vt 0.738281 0.097656
vt 0.195313 0.429688
vt 0.166016 0.373047
vt 0.150391 0.312500
vt 0.148438 0.289063
vt 0.158203 0.242188
vt 0.169922 0.208984
vt 0.185547 0.197266
vt 0.806641 0.142578
vt 0.869141 0.253906
vt 0.867188 0.523438
vt 0.316406 0.566406
vt 0.234375 0.474609
vt 0.423828 0.660156
vt 0.863281 0.847656
vt 0.787109 0.833984
vt 0.705078 0.806641
vt 0.625000 0.775391
vt 0.546875 0.740234
vt 0.482422 0.701172
vn 0.0058 0.5305 0.8476
vn 0.0058 0.5531 0.8331
vn 0.0030 0.5313 0.8472
vn -0.0007 0.5319 0.8468
vn 0.0093 0.4955 0.8686
vn 0.0148 0.4640 0.8857
vn 0.0133 0.4994 0.8663
vn 0.0118 0.5522 0.8336
vn 0.0060 0.5307 0.8476
vn 0.0053 0.5246 0.8513
vn 0.0194 0.4258 0.9046
vn 0.0152 0.4502 0.8928
vn 0.0217 0.4102 0.9117
vn -0.0297 0.4520 -0.8915
vn -0.0250 0.4490 -0.8932
vn -0.0223 0.4672 -0.8839
vn -0.0197 0.4666 -0.8842
vn -0.0186 0.4677 -0.8837
vn -0.0192 0.4677 -0.8837
vn -0.0201 0.4682 -0.8834
vn 0.0141 0.4551 -0.8903
vn -0.0378 0.4844 -0.8740
vn 0.3042 -0.0680 -0.9502
vn -0.0272 0.4706 -0.8819
vn -0.0303 0.4768 -0.8785
vn -0.0292 0.4875 -0.8726
vn -0.0140 0.4533 -0.8913
vn -0.0085 0.4400 -0.8980
vn 0.0033 0.3954 -0.9185
vn -0.0003 0.4151 -0.9098
vn -0.0006 0.4169 -0.9089
vn -0.0237 0.5011 -0.8650
vn 0.0060 0.5307 -0.8476
vn 0.0118 0.5522 -0.8336
vn 0.0133 0.4994 -0.8663
vn 0.0148 0.4640 -0.8857
vn 0.0093 0.4955 -0.8686
vn -0.0007 0.5319 -0.8468
vn 0.0030 0.5313 -0.8472
vn 0.0058 0.5531 -0.8331
vn 0.0058 0.5305 -0.8476
vn 0.0053 0.5246 -0.8513
vn 0.0194 0.4258 -0.9046
vn 0.0217 0.4102 -0.9117
vn 0.0152 0.4502 -0.8928
vn 0.4570 0.8869 0.0678
vn 0.4582 0.8774 0.1421
vn 0.4534 0.8728 0.1805
vn 0.4574 0.8851 0.0865
vn 0.4495 0.8933 0.0015
vn 0.4534 0.8908 0.0308
vn 0.4521 0.8911 0.0390
vn 0.4495 0.8933 0.0014
vn 0.4586 0.8564 0.2371
vn 0.4607 0.8388 0.2901
vn 0.4516 0.8283 0.3316
vn 0.4524 0.8302 0.3257
vn 0.4645 0.8327 0.3014
vn 0.4585 0.8800 0.1237
vn 0.4591 0.8870 0.0494
vn 0.4588 0.8885 0.0011
vn 0.5393 0.8198 0.1927
vn 0.4590 0.8643 0.2056
vn 0.4366 0.8644 0.2495
vn 0.4693 0.8577 0.2102
vn 0.4750 0.8673 0.1486
vn 0.4677 0.8824 0.0515
vn 0.4679 0.8838 0.0008
vn 0.4722 0.8768 0.0909
vn 0.4541 0.8873 -0.0811
vn 0.4473 0.8751 -0.1849
vn 0.4494 0.8818 -0.1434
vn 0.4516 0.8898 -0.0657
vn 0.4514 0.8915 -0.0379
vn 0.4501 0.8924 -0.0304
vn 0.4516 0.8283 -0.3316
vn 0.4629 0.8363 -0.2938
vn 0.4642 0.8520 -0.2422
vn 0.4645 0.8327 -0.3014
vn 0.4524 0.8302 -0.3257
vn 0.4661 0.8764 -0.1209
vn 0.4607 0.8862 -0.0492
vn 0.4483 0.8683 -0.2124
vn 0.5393 0.8198 -0.1927
vn 0.4345 0.8637 -0.2554
vn 0.4750 0.8673 -0.1486
vn 0.4693 0.8577 -0.2102
vn 0.4685 0.8819 -0.0524
vn 0.4722 0.8768 -0.0909
vn -0.0378 0.4844 0.8740
vn 0.0141 0.4551 0.8903
vn -0.0201 0.4682 0.8834
vn -0.0193 0.4677 0.8837
vn -0.0186 0.4677 0.8837
vn -0.0198 0.4666 0.8843
vn -0.0223 0.4672 0.8839
vn -0.0250 0.4490 0.8932
vn -0.0297 0.4520 0.8915
vn -0.0303 0.4768 0.8785
vn -0.0272 0.4706 0.8819
vn 0.3040 -0.0678 0.9503
vn -0.0292 0.4875 0.8726
vn -0.0237 0.5011 0.8650
vn -0.0005 0.4169 0.9089
vn -0.0003 0.4151 0.9098
vn 0.0033 0.3953 0.9185
vn -0.0085 0.4399 0.8980
vn -0.0140 0.4533 0.8913
s 1
f 1/1/1 2/2/2 3/3/3
f 3/3/3 4/4/4 5/5/5
f 1/1/1 3/3/3 5/5/5
f 5/5/5 6/6/6 7/7/7
f 7/7/7 8/8/8 9/9/9
f 5/5/5 7/7/7 9/9/9
f 1/1/1 5/5/5 9/9/9
f 1/1/1 9/9/9 10/10/10
f 11/11/11 6/6/6 5/5/5
f 11/11/11 5/5/5 12/12/12
f 11/11/11 12/12/12 13/13/13
f 14/14/14 15/15/15 16/16/16
f 16/16/16 17/17/17 18/18/18
f 18/18/18 19/19/19 20/20/20
f 16/16/16 18/18/18 20/20/20
f 20/20/20 21/21/21 22/22/22
f 22/22/22 23/23/23 24/24/24
f 20/20/20 22/22/22 24/24/24
f 16/16/16 20/20/20 24/24/24
f 14/14/14 16/16/16 24/24/24
f 14/14/14 24/24/24 25/25/25
f 26/26/26 27/27/27 28/28/28
f 28/28/28 29/29/29 30/30/30
f 26/26/26 28/28/28 30/30/30
f 30/30/30 31/31/31 32/32/32
f 26/26/26 30/30/30 32/32/32
f 26/26/26 32/32/32 25/25/25
f 26/26/26 25/25/25 24/24/24
f 33/33/33 34/34/34 35/35/35
f 35/35/35 36/36/36 37/37/37
f 33/33/33 35/35/35 37/37/37
f 37/37/37 38/38/38 39/39/39
f 39/39/39 40/40/40 41/41/41
f 37/37/37 39/39/39 41/41/41
f 33/33/33 37/37/37 41/41/41
f 33/33/33 41/41/41 42/42/42
f 43/43/43 44/44/44 45/45/45
f 43/43/43 45/45/45 37/37/37
f 43/43/43 37/37/37 36/36/36
f 46/46/46 47/47/47 48/48/48
f 48/48/48 49/49/49 46/46/46
f 50/50/50 51/51/51 52/52/52
f 52/52/52 53/53/53 50/50/50
f 54/54/54 55/55/55 56/56/56
f 54/54/54 56/56/56 57/57/57
f 54/54/54 57/57/57 58/58/58
f 51/51/51 46/46/46 49/49/49
f 49/49/49 52/52/52 51/51/51
f 49/49/49 48/48/48 54/54/54
f 54/54/54 59/59/59 49/49/49
f 53/53/53 52/52/52 60/60/60
f 60/60/60 61/61/61 53/53/53
f 52/52/52 49/49/49 59/59/59
f 59/59/59 60/60/60 52/52/52
f 47/47/47 62/62/62 63/63/63
f 47/47/47 63/63/63 64/64/64
f 47/47/47 64/64/64 48/48/48
f 55/55/55 54/54/54 48/48/48
f 48/48/48 64/64/64 55/55/55
f 54/54/54 58/58/58 65/65/65
f 65/65/65 66/66/66 59/59/59
f 54/54/54 65/65/65 59/59/59
f 61/61/61 60/60/60 67/67/67
f 67/67/67 68/68/68 61/61/61
f 69/69/69 67/67/67 60/60/60
f 69/69/69 60/60/60 59/59/59
f 69/69/69 59/59/59 66/66/66
f 70/70/70 71/71/71 72/72/72
f 72/72/72 73/73/73 70/70/70
f 53/53/53 74/74/74 75/75/75
f 75/75/75 50/50/50 53/53/53
f 76/76/76 77/77/77 78/78/78
f 78/78/78 79/79/79 80/80/80
f 76/76/76 78/78/78 80/80/80
f 74/74/74 70/70/70 73/73/73
f 73/73/73 75/75/75 74/74/74
f 81/81/81 78/78/78 71/71/71
f 71/71/71 70/70/70 81/81/81
f 61/61/61 82/82/82 74/74/74
f 74/74/74 53/53/53 61/61/61
f 82/82/82 81/81/81 70/70/70
f 70/70/70 74/74/74 82/82/82
f 83/83/83 84/84/84 72/72/72
f 83/83/83 72/72/72 71/71/71
f 83/83/83 71/71/71 85/85/85
f 85/85/85 71/71/71 78/78/78
f 78/78/78 77/77/77 85/85/85
f 81/81/81 86/86/86 87/87/87
f 87/87/87 79/79/79 78/78/78
f 81/81/81 87/87/87 78/78/78
f 68/68/68 88/88/88 82/82/82
f 82/82/82 61/61/61 68/68/68
f 82/82/82 88/88/88 89/89/89
f 89/89/89 86/86/86 81/81/81
f 82/82/82 89/89/89 81/81/81
f 90/90/90 91/91/91 92/92/92
f 92/92/92 93/93/93 94/94/94
f 94/94/94 95/95/95 96/96/96
f 92/92/92 94/94/94 96/96/96
f 96/96/96 97/97/97 98/98/98
f 98/98/98 99/99/99 100/100/100
f 96/96/96 98/98/98 100/100/100
f 92/92/92 96/96/96 100/100/100
f 90/90/90 92/92/92 100/100/100
f 90/90/90 100/100/100 101/101/101
f 102/102/102 100/100/100 99/99/99
f 102/102/102 99/99/99 103/103/103
f 103/103/103 104/104/104 105/105/105
f 102/102/102 103/103/103 105/105/105
f 105/105/105 106/106/106 107/107/107
f 102/102/102 105/105/105 107/107/107
f 102/102/102 107/107/107 108/108/108
