# Blender v2.79 (sub 0) OBJ File: 'nissan.blend'
# www.blender.org
o Vidrio6_Box02.006
v -0.360763 0.452255 -0.450148
v -0.364940 0.446797 -0.288724
v -0.363067 0.449322 -0.345966
v -0.365158 0.446503 -0.284569
v -0.349782 0.473273 -0.474451
v -0.350169 0.472885 -0.453575
v -0.331665 0.508921 -0.459562
v -0.323257 0.534092 -0.359865
v -0.352161 0.472651 -0.345092
v -0.317814 0.546871 -0.305434
v -0.311481 0.559843 -0.210610
v -0.316087 0.549131 -0.293627
v -0.361678 0.454533 -0.269653
v -0.363530 0.453198 -0.209511
v -0.367890 0.448733 -0.100338
v -0.306128 0.565187 -0.100338
v -0.370303 0.441147 0.095480
v -0.334369 0.513429 0.095480
v -0.306316 0.564740 -0.007743
v -0.327021 0.528210 0.095480
v 0.000010 0.542773 -0.629567
v 0.000010 0.581652 -0.491607
v 0.050837 0.580708 -0.493670
v 0.051168 0.541183 -0.628633
v 0.218209 0.484626 -0.747330
v 0.218209 0.535994 -0.625583
v 0.145995 0.538238 -0.626902
v 0.141931 0.576078 -0.487186
v 0.197575 0.573528 -0.476025
v 0.149739 0.485996 -0.764743
v 0.051524 0.488389 -0.776536
v 0.000010 0.488702 -0.781239
v -0.051148 0.541183 -0.628633
v -0.050817 0.580708 -0.493670
v -0.218189 0.535994 -0.625583
v -0.218189 0.484626 -0.747330
v -0.197555 0.573528 -0.476025
v -0.141911 0.576078 -0.487186
v -0.145975 0.538238 -0.626902
v -0.149719 0.485996 -0.764743
v -0.051504 0.488389 -0.776536
v 0.360783 0.452255 -0.450148
v 0.363087 0.449322 -0.345966
v 0.364960 0.446797 -0.288724
v 0.365178 0.446503 -0.284569
v 0.331685 0.508921 -0.459562
v 0.349802 0.473273 -0.474451
v 0.350189 0.472885 -0.453575
v 0.323277 0.534092 -0.359865
v 0.352181 0.472651 -0.345092
v 0.317833 0.546871 -0.305434
v 0.311501 0.559843 -0.210610
v 0.363550 0.453198 -0.209511
v 0.361698 0.454533 -0.269653
v 0.316107 0.549131 -0.293627
v 0.306148 0.565187 -0.100338
v 0.367910 0.448733 -0.100338
v 0.370323 0.441147 0.095480
v 0.334389 0.513429 0.095480
v 0.306336 0.564740 -0.007743
v 0.000010 0.563248 0.165335
v 0.000010 0.512513 0.264501
v 0.048855 0.510258 0.261050
v 0.048669 0.562246 0.160347
v 0.159687 0.504813 0.251577
v 0.162711 0.559956 0.145268
v 0.218209 0.556952 0.128428
v 0.218209 0.499732 0.239686
v 0.302659 0.490781 0.201689
v 0.274934 0.552160 0.101310
v 0.049084 0.443343 0.385773
v 0.156275 0.439856 0.376502
v 0.218209 0.437842 0.365529
v 0.305921 0.433898 0.323720
v 0.328460 0.432722 0.292480
v 0.048592 0.584464 0.115710
v 0.163210 0.579155 0.104558
v 0.218209 0.577217 0.083104
v 0.265118 0.575463 0.065501
v 0.000010 0.444939 0.387675
v 0.000010 0.585799 0.118551
v -0.048649 0.562246 0.160347
v -0.048835 0.510258 0.261050
v -0.159667 0.504813 0.251577
v -0.162691 0.559956 0.145268
v -0.218189 0.556952 0.128428
v -0.274914 0.552160 0.101310
v -0.302639 0.490781 0.201689
v -0.218189 0.499732 0.239686
v -0.156255 0.439856 0.376502
v -0.049064 0.443343 0.385773
v -0.218189 0.437842 0.365529
v -0.305901 0.433898 0.323720
v -0.048572 0.584464 0.115710
v -0.163190 0.579155 0.104558
v -0.218189 0.577217 0.083104
v -0.265098 0.575463 0.065501
vt 0.719188 0.770809
vt 0.710330 0.760566
vt 0.717045 0.829488
vt 0.662662 0.745933
vt 0.673176 0.851718
vt 0.706485 0.721108
vt 0.658695 0.706018
vt 0.645157 0.866232
vt 0.632652 0.697795
vt 0.629621 0.696838
vt 0.603375 0.881018
vt 0.639024 0.871230
vt 0.624131 0.708832
vt 0.596589 0.700282
vt 0.546378 0.681572
vt 0.553078 0.890956
vt 0.455958 0.711146
vt 0.524112 0.890205
vt 0.452588 0.876765
vt 0.451898 0.910632
vt 0.509078 0.788761
vt 0.509304 0.725964
vt 0.603809 0.725407
vt 0.601603 0.788031
vt 0.903715 0.785646
vt 0.773108 0.786677
vt 0.773153 0.721794
vt 0.876708 0.717927
vt 0.893447 0.850510
vt 0.772652 0.851507
vt 0.599599 0.852358
vt 0.508868 0.853928
vt 0.601603 0.788031
vt 0.603809 0.725407
vt 0.903715 0.785646
vt 0.876708 0.717927
vt 0.773153 0.721794
vt 0.773108 0.786677
vt 0.772652 0.851507
vt 0.893447 0.850510
vt 0.599599 0.852358
vt 0.719188 0.770809
vt 0.717045 0.829488
vt 0.710330 0.760566
vt 0.673176 0.851718
vt 0.662662 0.745933
vt 0.658695 0.706018
vt 0.706485 0.721108
vt 0.632652 0.697795
vt 0.629621 0.696838
vt 0.645157 0.866232
vt 0.603375 0.881018
vt 0.596589 0.700282
vt 0.624131 0.708832
vt 0.639024 0.871230
vt 0.553078 0.890956
vt 0.546378 0.681572
vt 0.455958 0.711146
vt 0.524112 0.890205
vt 0.452588 0.876765
vt 0.508439 0.418845
vt 0.507796 0.360338
vt 0.582019 0.360538
vt 0.589435 0.423722
vt 0.749911 0.360390
vt 0.779266 0.435152
vt 0.871646 0.440715
vt 0.840237 0.366882
vt 0.963470 0.364635
vt 0.962185 0.451636
vt 0.572893 0.282785
vt 0.716801 0.276063
vt 0.799951 0.272179
vt 0.927490 0.281080
vt 0.964667 0.283675
vt 0.592579 0.449557
vt 0.789746 0.459664
vt 0.885051 0.466552
vt 0.950034 0.473900
vt 0.507010 0.285863
vt 0.508713 0.444149
vt 0.589435 0.423722
vt 0.582019 0.360538
vt 0.749911 0.360390
vt 0.779266 0.435152
vt 0.871646 0.440715
vt 0.962185 0.451636
vt 0.963470 0.364635
vt 0.840237 0.366882
vt 0.716801 0.276063
vt 0.572893 0.282785
vt 0.799951 0.272179
vt 0.927490 0.281080
vt 0.592579 0.449557
vt 0.789746 0.459664
vt 0.885051 0.466552
vt 0.950034 0.473900
vn -0.8901 0.4557 -0.0080
vn -0.8903 0.4552 -0.0117
vn -0.8891 0.4576 -0.0115
vn -0.9072 0.4197 -0.0295
vn -0.8905 0.4547 -0.0154
vn -0.8902 0.4554 -0.0094
vn -0.9058 0.4237 -0.0081
vn -0.9057 0.4238 -0.0095
vn -0.9058 0.4235 -0.0109
vn -0.9052 0.4248 -0.0105
vn -0.9057 0.4239 -0.0090
vn -0.9056 0.4241 -0.0093
vn -0.9057 0.4238 -0.0109
vn -0.9120 0.4097 -0.0189
vn -0.9052 0.4247 -0.0109
vn -0.9023 0.4308 -0.0161
vn -0.8997 0.4365 -0.0060
vn -0.8963 0.4432 -0.0132
vn -0.8986 0.4384 -0.0179
vn -0.8986 0.4384 -0.0180
vn -0.8833 0.4684 0.0202
vn -0.8841 0.4674 -0.0003
vn -0.8834 0.4685 0.0073
vn -0.8874 0.4611 0.0013
vn -0.8855 0.4646 -0.0036
vn -0.8952 0.4450 -0.0221
vn -0.8952 0.4451 -0.0221
vn -0.0000 0.9625 -0.2712
vn 0.0069 0.9625 -0.2712
vn 0.0349 0.9591 -0.2808
vn 0.0347 0.9649 -0.2603
vn 0.0907 0.9688 -0.2306
vn 0.0897 0.9681 -0.2341
vn 0.0868 0.9690 -0.2313
vn 0.0357 0.9208 -0.3885
vn 0.1076 0.9306 -0.3498
vn 0.0674 0.9635 -0.2590
vn 0.0355 0.9348 -0.3533
vn 0.0632 0.9400 -0.3354
vn 0.0360 0.9413 -0.3357
vn 0.0354 0.9412 -0.3359
vn 0.0362 0.9413 -0.3356
vn 0.0364 0.9413 -0.3356
vn -0.0349 0.9591 -0.2808
vn -0.0069 0.9625 -0.2712
vn -0.0867 0.9690 -0.2313
vn -0.0897 0.9681 -0.2341
vn -0.0907 0.9688 -0.2306
vn -0.0347 0.9649 -0.2603
vn -0.1076 0.9306 -0.3498
vn -0.0357 0.9208 -0.3885
vn -0.0674 0.9635 -0.2590
vn -0.0632 0.9400 -0.3354
vn -0.0355 0.9348 -0.3533
vn -0.0360 0.9413 -0.3357
vn -0.0364 0.9413 -0.3356
vn -0.0359 0.9414 -0.3355
vn -0.0354 0.9412 -0.3359
vn 0.8901 0.4557 -0.0080
vn 0.8891 0.4576 -0.0115
vn 0.8903 0.4552 -0.0117
vn 0.9072 0.4197 -0.0295
vn 0.8905 0.4547 -0.0154
vn 0.9058 0.4235 -0.0109
vn 0.9057 0.4238 -0.0095
vn 0.9058 0.4237 -0.0081
vn 0.8902 0.4554 -0.0094
vn 0.9057 0.4238 -0.0109
vn 0.9120 0.4097 -0.0189
vn 0.9052 0.4248 -0.0106
vn 0.9052 0.4248 -0.0109
vn 0.9056 0.4241 -0.0092
vn 0.9057 0.4239 -0.0089
vn 0.8986 0.4384 -0.0180
vn 0.8986 0.4384 -0.0179
vn 0.8979 0.4395 -0.0238
vn 0.9014 0.4329 -0.0059
vn 0.8997 0.4365 -0.0060
vn 0.9027 0.4302 -0.0046
vn 0.8833 0.4684 0.0202
vn 0.8848 0.4660 0.0032
vn 0.8833 0.4684 0.0182
vn 0.8874 0.4611 0.0013
vn 0.8855 0.4646 -0.0036
vn 0.8952 0.4451 -0.0221
vn 0.0716 0.8876 0.4550
vn 0.0731 0.8879 0.4542
vn 0.0667 0.8869 0.4571
vn 0.0652 0.8867 0.4577
vn 0.0801 0.8853 0.4581
vn 0.0787 0.8840 0.4608
vn 0.0827 0.8855 0.4573
vn 0.0828 0.8835 0.4610
vn 0.2871 0.8516 0.4386
vn 0.2874 0.8518 0.4381
vn 0.2840 0.8511 0.4416
vn 0.2833 0.8510 0.4421
vn 0.1837 0.8741 0.4496
vn 0.1688 0.8730 0.4576
vn 0.0702 0.8791 0.4715
vn 0.0728 0.8789 0.4714
vn 0.0694 0.8791 0.4715
vn 0.0828 0.8833 0.4615
vn 0.1103 0.8806 0.4609
vn 0.1653 0.8850 0.4353
vn 0.5235 0.7775 0.3484
vn 0.2331 0.8838 0.4057
vn 0.2818 0.8610 0.4234
vn 0.0767 0.8927 0.4442
vn 0.0832 0.9009 0.4259
vn 0.1761 0.8895 0.4216
vn 0.1880 0.8966 0.4009
vn 0.2627 0.8808 0.3938
vn 0.2156 0.8444 0.4904
vn 0.0739 0.8788 0.4714
vn 0.0471 0.8758 0.4804
vn 0.0506 0.8941 0.4450
vn 0.0435 0.8944 0.4451
vn 0.0490 0.8913 0.4507
vn 0.0629 0.8990 0.4334
vn -0.0716 0.8876 0.4550
vn -0.0652 0.8867 0.4577
vn -0.0667 0.8869 0.4571
vn -0.0731 0.8879 0.4542
vn -0.0806 0.8848 0.4589
vn -0.0826 0.8856 0.4570
vn -0.0827 0.8855 0.4573
vn -0.0787 0.8840 0.4608
vn -0.2871 0.8516 0.4386
vn -0.2833 0.8510 0.4421
vn -0.2840 0.8511 0.4416
vn -0.2874 0.8518 0.4381
vn -0.1688 0.8730 0.4576
vn -0.1837 0.8741 0.4496
vn -0.0828 0.8833 0.4615
vn -0.0694 0.8791 0.4715
vn -0.0729 0.8789 0.4714
vn -0.0702 0.8791 0.4715
vn -0.1653 0.8850 0.4353
vn -0.1103 0.8806 0.4609
vn -0.2331 0.8838 0.4057
vn -0.2818 0.8610 0.4234
vn -0.0832 0.9009 0.4259
vn -0.0767 0.8927 0.4442
vn -0.1880 0.8966 0.4009
vn -0.1761 0.8895 0.4216
vn -0.2156 0.8444 0.4904
vn -0.2627 0.8808 0.3938
vn -0.0471 0.8758 0.4804
vn -0.0739 0.8788 0.4714
vn -0.0629 0.8990 0.4334
vn -0.0490 0.8913 0.4507
vn -0.0436 0.8944 0.4451
vn -0.0506 0.8941 0.4450
s 1
f 5/1/1 6/2/2 7/3/3
f 9/4/4 8/5/4 7/3/4
f 6/2/2 9/4/5 7/3/3
f 9/4/5 6/2/2 1/6/6
f 1/6/7 3/7/8 9/4/9
f 10/8/10 8/5/11 9/4/12
f 9/4/9 3/7/8 2/9/13
f 9/4/14 2/9/14 4/10/14
f 10/8/10 9/4/12 4/10/15
f 5/1/1 1/6/6 6/2/2
f 11/11/16 12/12/17 13/13/18
f 13/13/18 14/14/19 11/11/16
f 11/11/16 14/14/19 15/15/20
f 15/15/21 16/16/21 11/11/21
f 16/16/22 15/15/23 17/17/24
f 19/18/25 16/16/22 17/17/24
f 18/19/26 19/18/27 17/17/27
f 19/18/27 18/19/26 20/20/26
f 21/21/28 22/22/28 23/23/29
f 23/23/30 24/24/30 21/21/30
f 26/25/31 27/26/31 28/27/31
f 28/27/32 29/28/33 26/25/34
f 27/26/35 26/25/35 25/29/35
f 25/29/36 30/30/36 27/26/36
f 27/26/30 24/24/30 23/23/30
f 23/23/37 28/27/37 27/26/37
f 24/24/38 27/26/38 30/30/38
f 30/30/39 31/31/39 24/24/39
f 21/21/40 24/24/41 31/31/42
f 31/31/42 32/32/43 21/21/40
f 21/21/44 33/33/44 34/34/44
f 34/34/45 22/22/28 21/21/28
f 35/35/46 37/36/47 38/37/48
f 38/37/49 39/38/49 35/35/49
f 39/38/50 40/39/50 36/40/50
f 36/40/51 35/35/51 39/38/51
f 39/38/52 38/37/52 34/34/52
f 34/34/44 33/33/44 39/38/44
f 33/33/53 41/41/53 40/39/53
f 40/39/54 39/38/54 33/33/54
f 21/21/55 32/32/56 41/41/57
f 41/41/57 33/33/58 21/21/55
f 47/42/59 46/43/60 48/44/61
f 46/43/62 49/45/62 50/46/62
f 48/44/61 46/43/60 50/46/63
f 50/46/64 43/47/65 42/48/66
f 42/48/67 48/44/61 50/46/63
f 44/49/68 43/47/65 50/46/64
f 45/50/69 44/49/69 50/46/69
f 51/51/70 45/50/71 50/46/72
f 51/51/70 50/46/72 49/45/73
f 47/42/59 48/44/61 42/48/67
f 52/52/74 53/53/75 54/54/76
f 54/54/77 55/55/78 52/52/79
f 52/52/80 56/56/81 57/57/82
f 57/57/74 53/53/75 52/52/74
f 58/58/83 57/57/82 56/56/81
f 58/58/83 56/56/81 60/59/84
f 59/60/85 58/58/85 60/59/85
f 61/61/86 62/62/87 63/63/88
f 63/63/88 64/64/89 61/61/86
f 65/65/90 66/66/91 64/64/92
f 64/64/92 63/63/93 65/65/90
f 67/67/94 68/68/95 69/69/96
f 69/69/96 70/70/97 67/67/94
f 68/68/98 67/67/98 66/66/98
f 66/66/99 65/65/99 68/68/99
f 63/63/100 71/71/101 72/72/102
f 72/72/103 65/65/90 63/63/93
f 65/65/104 72/72/104 73/73/104
f 73/73/105 68/68/105 65/65/105
f 74/74/106 75/75/106 69/69/106
f 73/73/107 74/74/107 69/69/107
f 68/68/108 73/73/108 69/69/108
f 76/76/109 64/64/109 66/66/109
f 66/66/110 77/77/110 76/76/110
f 77/77/111 66/66/111 67/67/111
f 67/67/112 78/78/112 77/77/112
f 78/78/113 67/67/113 70/70/113
f 70/70/114 79/79/114 78/78/114
f 71/71/101 63/63/100 62/62/115
f 62/62/116 80/80/116 71/71/116
f 64/64/117 76/76/118 81/81/119
f 81/81/120 61/61/120 64/64/120
f 61/61/121 82/82/122 83/83/123
f 83/83/123 62/62/124 61/61/121
f 84/84/125 83/83/126 82/82/127
f 82/82/127 85/85/128 84/84/125
f 86/86/129 87/87/130 88/88/131
f 88/88/131 89/89/132 86/86/129
f 89/89/133 84/84/133 85/85/133
f 85/85/134 86/86/134 89/89/134
f 83/83/135 84/84/135 90/90/135
f 90/90/136 91/91/137 83/83/138
f 84/84/139 89/89/139 92/92/139
f 92/92/140 90/90/140 84/84/140
f 88/88/141 93/93/141 92/92/141
f 89/89/142 88/88/142 92/92/142
f 94/94/143 95/95/143 85/85/143
f 85/85/144 82/82/144 94/94/144
f 95/95/145 96/96/145 86/86/145
f 86/86/146 85/85/146 95/95/146
f 96/96/147 97/97/147 87/87/147
f 87/87/148 86/86/148 96/96/148
f 91/91/149 80/80/149 62/62/149
f 62/62/150 83/83/138 91/91/137
f 82/82/151 61/61/151 81/81/151
f 81/81/152 94/94/153 82/82/154
