# Blender v2.79 (sub 0) OBJ File: ''
# www.blender.org
o Mitsubishi__Evo_ment_car_body_01.008_Mitsubishi__Evo_ment_car_body_01.010
v 503.936371 43.579926 -25.568602
v 502.557617 46.293266 34.878208
v 507.595551 45.745205 -24.457003
v 506.701630 51.442505 -24.465473
v 511.421356 51.442501 6.288679
v 512.315308 45.745201 6.297148
v 507.006927 45.745193 37.646610
v 512.308777 45.745201 6.987438
v 511.414795 51.442501 6.978968
v 506.113007 51.442493 37.638126
v 505.441711 54.985500 -9.184332
v 504.443848 54.985504 -15.852482
v 499.011810 68.573906 -13.549758
v 500.001862 68.791306 -4.261758
v 501.642639 54.985504 -25.867081
v 495.785858 68.725807 -27.498158
v 496.665833 68.616608 -25.170118
v 502.521881 54.985504 -24.194071
v 502.946045 54.985504 -22.525381
v 497.345795 68.483002 -22.844069
v 500.974823 68.791306 5.025972
v 506.107635 54.985500 -2.519261
v 496.815155 54.985504 -30.900150
v 490.555756 68.791313 -33.844910
v 494.253906 68.791313 -29.832279
v 499.955536 54.985504 -27.547741
v 505.142975 54.985497 22.335850
v 499.797363 68.791306 17.311071
v 498.631439 68.573898 26.578630
v 504.018951 54.985497 28.983900
v 501.028381 54.985493 38.943600
v 501.939178 54.985493 37.287556
v 496.065643 68.616592 38.152431
v 495.141693 68.725792 40.463383
v 502.394867 54.985493 35.627209
v 496.789612 68.482994 35.839691
v 505.935059 54.985497 15.684599
v 500.946198 68.791306 8.043442
v 496.106354 54.985493 43.884281
v 499.309662 54.985493 40.591980
v 493.565826 68.791298 42.768051
v 489.792297 68.791298 46.709862
v 509.318420 38.275505 -13.776994
v 509.204407 44.187805 -13.778073
v 511.313690 44.187801 -3.562623
v 511.427734 38.275501 -3.561544
v 510.347748 32.578201 -3.571785
v 508.239471 32.578205 -13.787225
v 508.074860 27.095701 -3.593326
v 505.966553 27.095703 -13.808766
v 506.349182 38.275505 -24.000595
v 506.236176 44.187805 -24.001661
v 512.664978 44.187801 6.645637
v 512.778015 38.275501 6.646707
v 505.270233 32.578205 -24.010826
v 511.699036 32.578201 6.636485
v 502.997375 27.095705 -24.032366
v 509.426178 27.095699 6.614944
v 500.707581 38.275505 -34.198013
v 500.593567 44.187805 -34.199093
v 499.628632 32.578205 -34.208244
v 497.355713 27.095707 -34.229790
v 508.931946 38.275497 27.001165
v 511.234467 38.275497 16.827536
v 511.120422 44.187798 16.826458
v 508.817932 44.187798 27.000088
v 510.154510 32.578197 16.817295
v 507.852997 32.578197 26.990946
v 507.881592 27.095699 16.795755
v 505.580078 27.095697 26.969395
v 505.769440 38.275494 37.166660
v 505.656464 44.187794 37.165588
v 504.690521 32.578194 37.156425
v 502.417572 27.095695 37.134884
v 499.821594 44.187794 47.254238
v 499.935547 38.275494 47.255318
v 498.856598 32.578194 47.245087
v 496.583710 27.095694 47.223545
v 457.560455 84.618004 -13.076797
v 454.913086 84.745209 -25.604946
v 450.864502 85.992607 -20.921007
v 451.313873 86.192299 -13.783026
v 452.255707 86.476303 6.073084
v 461.665344 84.420601 6.162264
v 476.182678 80.960899 6.299863
v 471.762695 81.256706 -11.663327
v 463.237030 82.682610 -26.507896
v 457.645172 83.947411 -28.765596
v 471.054291 80.874802 -21.754097
v 472.587158 80.585602 -20.255598
v 475.434784 80.243301 -11.332517
v 477.357178 80.483101 4.141183
v 457.196533 84.617996 25.320074
v 450.937714 86.192291 25.907784
v 450.353119 85.992599 33.035957
v 454.312225 84.745193 37.795795
v 471.423004 81.256699 24.176054
v 456.983887 83.947395 41.007668
v 462.617493 82.682594 38.856365
v 470.523499 80.874794 34.251579
v 472.084473 80.585594 32.782402
v 475.100677 80.243294 23.914894
v 477.316010 80.483101 8.480424
v 450.200012 85.715012 -30.471539
v 454.000977 84.789009 -29.925285
v 466.823151 81.879112 -24.917738
v 469.037567 81.339310 -23.583298
v 473.800293 80.350098 -18.258617
v 474.403229 80.283302 -16.243607
v 475.025116 80.243706 -13.588998
v 477.416595 80.573601 6.311563
v 449.507721 85.714996 42.572174
v 453.318359 84.788994 42.098076
v 466.233124 81.879097 37.334450
v 468.472412 81.339294 36.042221
v 473.335266 80.350090 30.808773
v 473.976288 80.283295 28.805565
v 474.648346 80.243698 26.163212
vt 0.010600 0.781400
vt 0.406900 0.707600
vt 0.408700 0.781400
vt 0.406900 0.707600
vt 0.010600 0.781400
vt 0.408700 0.781400
vt 0.666500 0.812800
vt 0.733000 0.978800
vt 0.626600 0.986900
vt 0.862800 0.811000
vt 0.868500 0.976900
vt 0.841300 0.809200
vt 0.821600 0.809200
vt 0.743500 0.809900
vt 0.590100 0.817200
vt 0.941500 0.823200
vt 0.928500 0.983500
vt 0.889700 0.815300
vt 0.896900 0.979200
vt 0.840800 0.975100
vt 0.666500 0.813000
vt 0.733000 0.979000
vt 0.743500 0.810100
vt 0.862800 0.811100
vt 0.868500 0.977000
vt 0.896900 0.979400
vt 0.821600 0.809400
vt 0.840900 0.975200
vt 0.626600 0.987100
vt 0.590100 0.817400
vt 0.520100 0.993000
vt 0.941600 0.823400
vt 0.928500 0.983700
vt 0.990200 0.993000
vt 0.889700 0.815500
vt 0.841300 0.809400
vt 0.265200 0.195100
vt 0.381900 0.122200
vt 0.384200 0.190200
vt 0.384300 0.256600
vt 0.382100 0.324700
vt 0.265200 0.261300
vt 0.144600 0.202000
vt 0.261400 0.127200
vt 0.501300 0.119600
vt 0.501100 0.252900
vt 0.261700 0.329400
vt 0.144500 0.267600
vt 0.501100 0.320900
vt 0.139000 0.134800
vt 0.012300 0.213700
vt 0.005900 0.146300
vt 0.139200 0.335000
vt 0.012400 0.280400
vt 0.736900 0.195300
vt 0.620500 0.122300
vt 0.740800 0.127500
vt 0.617900 0.256600
vt 0.736800 0.261400
vt 0.620100 0.324700
vt 0.740300 0.329300
vt 0.857200 0.202200
vt 0.862800 0.135200
vt 0.618000 0.190300
vt 0.501200 0.187500
vt 0.857200 0.267700
vt 0.862500 0.335000
vt 0.989100 0.214100
vt 0.989000 0.280600
vt 0.735100 0.595500
vt 0.832100 0.681500
vt 0.743100 0.675800
vt 0.495700 0.663000
vt 0.495700 0.543000
vt 0.719100 0.413500
vt 0.891000 0.629300
vt 0.903200 0.522600
vt 0.930700 0.594200
vt 0.844800 0.422100
vt 0.826300 0.402500
vt 0.522800 0.341900
vt 0.715400 0.366100
vt 0.256500 0.595500
vt 0.159500 0.681500
vt 0.100600 0.629300
vt 0.272400 0.413600
vt 0.495700 0.357300
vt 0.088300 0.522600
vt 0.146700 0.422100
vt 0.468700 0.341900
vt 0.276100 0.366100
vt 0.951100 0.689800
vt 0.944700 0.641000
vt 0.883800 0.476600
vt 0.867400 0.448100
vt 0.801600 0.386900
vt 0.776500 0.379200
vt 0.743500 0.371300
vt 0.495700 0.341300
vt 0.040400 0.689800
vt 0.046800 0.641000
vt 0.060800 0.594200
vt 0.107800 0.476600
vt 0.124100 0.448100
vt 0.165200 0.402500
vt 0.189900 0.386900
vt 0.215000 0.379200
vt 0.248000 0.371300
vt 0.008700 0.707600
vt 0.008800 0.707600
vt 0.520000 0.992800
vt 0.990100 0.992800
vt 0.006200 0.348200
vt 0.995600 0.146800
vt 0.995100 0.348200
vt 0.248400 0.675800
vn 0.9768 0.1530 -0.1499
vn 0.9738 0.1530 0.1684
vn 0.9133 0.3905 -0.1155
vn 0.9114 0.3876 -0.1386
vn 0.9133 0.3960 -0.0949
vn 0.7463 0.2732 -0.6070
vn 0.8966 0.3532 -0.2670
vn 0.8687 0.3508 -0.3498
vn 0.9011 0.3802 -0.2085
vn 0.8997 0.3933 -0.1894
vn 0.9149 0.3931 -0.0914
vn 0.7162 0.1849 -0.6729
vn 0.7815 0.2168 -0.5851
vn 0.6678 0.1923 -0.7191
vn 0.8719 0.2937 -0.3918
vn 0.9075 0.3680 -0.2026
vn 0.9110 0.3906 0.1327
vn 0.9086 0.3876 0.1558
vn 0.8959 0.3933 0.2064
vn 0.7347 0.2732 0.6210
vn 0.8914 0.3532 0.2840
vn 0.8644 0.2937 0.4082
vn 0.8970 0.3802 0.2255
vn 0.9035 0.3680 0.2197
vn 0.9114 0.3960 0.1122
vn 0.9131 0.3931 0.1088
vn 0.9127 0.3922 0.1150
vn 0.7033 0.1849 0.6864
vn 0.7703 0.2168 0.5998
vn 0.7122 0.1858 0.6769
vn 0.6541 0.1923 0.7316
vn 0.8619 0.3508 0.3661
vn 0.9675 -0.0811 -0.2393
vn 0.9858 0.0190 -0.1669
vn 0.9827 -0.0825 -0.1658
vn 0.9462 -0.2815 -0.1597
vn 0.9127 -0.3778 -0.1559
vn 0.9327 -0.2773 -0.2308
vn 0.9217 -0.0770 -0.3802
vn 0.9704 0.0186 -0.2408
vn 0.9998 0.0192 0.0095
vn 0.9589 -0.2836 0.0091
vn 0.9003 -0.3723 -0.2256
vn 0.8914 -0.2639 -0.3683
vn 0.9237 -0.3830 0.0088
vn 0.9231 0.0176 -0.3843
vn 0.8725 -0.0755 -0.4827
vn 0.8749 0.0168 -0.4841
vn 0.8593 -0.3548 -0.3684
vn 0.8450 -0.2598 -0.4675
vn 0.9628 -0.0811 0.2576
vn 0.9825 0.0190 0.1855
vn 0.9657 0.0186 0.2592
vn 0.9430 -0.2815 0.1776
vn 0.9281 -0.2773 0.2484
vn 0.9096 -0.3778 0.1731
vn 0.8958 -0.3723 0.2426
vn 0.9143 -0.0770 0.3976
vn 0.9156 0.0176 0.4017
vn 0.9794 -0.0825 0.1844
vn 0.9965 -0.0832 0.0094
vn 0.8843 -0.2639 0.3852
vn 0.8521 -0.3548 0.3847
vn 0.8632 -0.0755 0.4992
vn 0.8360 -0.2598 0.4834
vn 0.2431 0.9692 -0.0386
vn 0.2480 0.9678 -0.0434
vn 0.2568 0.9659 -0.0323
vn 0.2132 0.9770 0.0020
vn 0.2200 0.9755 -0.0021
vn 0.2490 0.9673 -0.0474
vn 0.2413 0.9696 -0.0420
vn 0.2358 0.9710 -0.0404
vn 0.2364 0.9708 -0.0410
vn 0.2411 0.9695 -0.0434
vn 0.2428 0.9687 -0.0524
vn 0.3032 0.9514 -0.0537
vn 0.2668 0.9625 -0.0484
vn 0.2407 0.9698 0.0390
vn 0.2471 0.9678 0.0481
vn 0.2404 0.9696 0.0466
vn 0.2481 0.9673 0.0521
vn 0.2687 0.9632 0.0002
vn 0.2350 0.9710 0.0448
vn 0.2402 0.9695 0.0480
vn 0.3020 0.9514 0.0595
vn 0.2659 0.9625 0.0536
vn 0.2441 0.9688 -0.0434
vn 0.2403 0.9698 -0.0409
vn 0.2449 0.9690 -0.0326
vn 0.2506 0.9677 -0.0283
vn 0.2685 0.9620 -0.0493
vn 0.2698 0.9617 -0.0488
vn 0.2994 0.9541 0.0028
vn 0.2433 0.9688 0.0480
vn 0.2394 0.9698 0.0454
vn 0.2356 0.9708 0.0455
vn 0.2442 0.9690 0.0372
vn 0.2500 0.9677 0.0330
vn 0.2417 0.9687 0.0570
vn 0.2675 0.9620 0.0544
vn 0.2688 0.9617 0.0540
vn 0.2688 0.9617 0.0539
vn 0.9147 0.3922 -0.0977
vn 0.7250 0.1858 -0.6632
vn 0.8231 -0.3394 -0.4554
vn 0.8655 0.0168 0.5006
vn 0.8143 -0.3394 0.4709
vn 0.2561 0.9659 0.0372
s 1
f 3/1/1 5/2/1 6/3/1
f 7/4/2 9/5/2 10/6/2
f 11/7/3 13/8/4 14/9/5
f 15/10/6 17/11/7 18/12/8
f 19/13/9 13/8/4 12/14/10
f 14/9/5 22/15/11 11/7/3
f 23/16/12 25/17/13 26/18/14
f 26/18/14 16/19/15 15/10/6
f 20/20/16 18/12/8 17/11/7
f 27/21/17 29/22/18 30/23/19
f 31/24/20 33/25/21 34/26/22
f 35/27/23 29/22/18 36/28/24
f 28/29/25 37/30/26 38/31/27
f 39/32/28 41/33/29 42/34/30
f 40/35/31 34/26/22 41/33/29
f 36/28/24 32/36/32 35/27/23
f 43/37/33 45/38/34 46/39/35
f 47/40/36 43/37/33 46/39/35
f 49/41/37 48/42/38 47/40/36
f 51/43/39 44/44/40 43/37/33
f 53/45/41 46/39/35 45/38/34
f 48/42/38 51/43/39 43/37/33
f 46/39/35 56/46/42 47/40/36
f 50/47/43 55/48/44 48/42/38
f 47/40/36 58/49/45 49/41/37
f 52/50/46 59/51/47 60/52/48
f 55/48/44 59/51/47 51/43/39
f 57/53/49 61/54/50 55/48/44
f 63/55/51 65/56/52 66/57/53
f 67/58/54 63/55/51 68/59/55
f 69/60/56 68/59/55 70/61/57
f 71/62/58 66/57/53 72/63/59
f 53/45/41 64/64/60 54/65/61
f 68/59/55 71/62/58 73/66/62
f 64/64/60 56/46/42 54/65/61
f 70/61/57 73/66/62 74/67/63
f 67/58/54 58/49/45 56/46/42
f 72/63/59 76/68/64 71/62/58
f 76/68/64 73/66/62 71/62/58
f 77/69/65 74/67/63 73/66/62
f 79/70/66 81/71/67 82/72/68
f 83/73/69 79/70/66 82/72/68
f 84/74/70 86/75/71 79/70/66
f 80/76/72 87/77/73 88/78/74
f 89/79/75 86/75/71 90/80/76
f 86/75/71 92/81/77 91/82/78
f 93/83/79 95/84/80 96/85/81
f 83/73/69 93/83/79 84/74/70
f 84/74/70 97/86/82 85/87/83
f 96/85/81 99/88/84 93/83/79
f 100/89/85 97/86/82 93/83/79
f 103/90/86 97/86/82 102/91/87
f 104/92/88 81/71/67 80/76/72
f 105/93/89 80/76/72 88/78/74
f 87/77/73 79/70/66 106/94/90
f 106/94/90 79/70/66 107/95/91
f 107/95/91 79/70/66 89/79/75
f 90/80/76 86/75/71 108/96/92
f 108/96/92 86/75/71 109/97/93
f 109/97/93 86/75/71 110/98/93
f 110/98/93 86/75/71 91/82/78
f 92/81/77 85/87/83 111/99/94
f 80/76/72 105/93/89 104/92/88
f 112/100/95 96/85/81 95/84/80
f 113/101/96 98/102/97 96/85/81
f 99/88/84 114/103/98 93/83/79
f 114/103/98 115/104/99 93/83/79
f 115/104/99 100/89/85 93/83/79
f 101/105/100 116/106/101 97/86/82
f 116/106/101 117/107/102 97/86/82
f 117/107/102 118/108/103 97/86/82
f 118/108/103 102/91/87 97/86/82
f 103/90/86 111/99/94 85/87/83
f 96/85/81 112/100/95 113/101/96
f 3/1/1 4/109/1 5/2/1
f 7/4/2 8/110/2 9/5/2
f 11/7/3 12/14/10 13/8/4
f 15/10/6 16/19/15 17/11/7
f 19/13/9 20/20/16 13/8/4
f 14/9/5 21/111/104 22/15/11
f 23/16/12 24/112/105 25/17/13
f 26/18/14 25/17/13 16/19/15
f 20/20/16 19/13/9 18/12/8
f 27/21/17 28/29/25 29/22/18
f 31/24/20 32/36/32 33/25/21
f 35/27/23 30/23/19 29/22/18
f 28/29/25 27/21/17 37/30/26
f 39/32/28 40/35/31 41/33/29
f 40/35/31 31/24/20 34/26/22
f 36/28/24 33/25/21 32/36/32
f 43/37/33 44/44/40 45/38/34
f 47/40/36 48/42/38 43/37/33
f 49/41/37 50/47/43 48/42/38
f 51/43/39 52/50/46 44/44/40
f 53/45/41 54/65/61 46/39/35
f 48/42/38 55/48/44 51/43/39
f 46/39/35 54/65/61 56/46/42
f 50/47/43 57/53/49 55/48/44
f 47/40/36 56/46/42 58/49/45
f 52/50/46 51/43/39 59/51/47
f 55/48/44 61/54/50 59/51/47
f 57/53/49 62/113/106 61/54/50
f 63/55/51 64/64/60 65/56/52
f 67/58/54 64/64/60 63/55/51
f 69/60/56 67/58/54 68/59/55
f 71/62/58 63/55/51 66/57/53
f 53/45/41 65/56/52 64/64/60
f 68/59/55 63/55/51 71/62/58
f 64/64/60 67/58/54 56/46/42
f 70/61/57 68/59/55 73/66/62
f 67/58/54 69/60/56 58/49/45
f 72/63/59 75/114/107 76/68/64
f 76/68/64 77/69/65 73/66/62
f 77/69/65 78/115/108 74/67/63
f 79/70/66 80/76/72 81/71/67
f 83/73/69 84/74/70 79/70/66
f 84/74/70 85/87/83 86/75/71
f 80/76/72 79/70/66 87/77/73
f 89/79/75 79/70/66 86/75/71
f 86/75/71 85/87/83 92/81/77
f 93/83/79 94/116/109 95/84/80
f 83/73/69 94/116/109 93/83/79
f 84/74/70 93/83/79 97/86/82
f 96/85/81 98/102/97 99/88/84
f 100/89/85 101/105/100 97/86/82
f 103/90/86 85/87/83 97/86/82
