# Blender v2.79 (sub 0) OBJ File: ''
# www.blender.org
o Blanco_Mitsubishi__Evo_ment_car_body_01.012
v 267.697632 145.779510 14.829144
v 267.896759 145.779510 -6.179506
v 268.041504 145.301498 -6.215136
v 267.841675 145.301498 14.867514
v 267.949097 146.495514 -6.192416
v 267.749725 146.495514 14.843034
v 268.116669 147.508514 -6.233626
v 267.916595 147.508514 14.887424
v 268.393860 148.732513 -6.301706
v 268.192322 148.732513 14.960734
v 270.480438 153.436508 15.569554
v 270.693115 153.436508 -6.867035
v 269.962585 152.502502 -6.687456
v 269.753448 152.502502 15.376055
v 271.495422 154.067505 -7.064245
v 271.278900 154.067505 15.781936
v 285.424286 150.626511 -10.488585
v 282.941101 151.750519 -9.878085
v 282.669159 151.750519 18.812216
v 285.140350 150.626511 19.469666
v 289.477234 146.594513 -11.484917
v 289.129395 147.568512 -11.399406
v 288.827515 147.568512 20.450554
v 289.173676 146.594513 20.542645
v 289.580566 145.672516 -11.510336
v 289.276489 145.672516 20.570023
v 289.490753 144.503510 -11.488287
v 289.539886 144.856506 -11.500326
v 289.235992 144.856506 20.559233
v 289.187103 144.503510 20.546263
v 289.263519 143.896515 -11.432436
v 289.406555 144.185516 -11.467587
v 289.103333 144.185516 20.523973
v 288.960999 143.896515 20.486122
v 289.035767 143.639511 -11.376396
v 288.734344 143.639511 20.425774
v 287.900208 143.403503 20.203854
v 288.197601 143.403503 -11.170327
v 288.691559 143.458511 -11.291857
v 288.391815 143.458511 20.334623
v 273.324158 154.559509 -7.513824
v 274.397919 154.512512 -7.777765
v 272.370392 154.422516 -7.279355
v 275.774475 154.241501 -8.116235
v 277.672180 153.685516 -8.582766
v 280.188965 152.818512 -9.201546
v 269.321655 151.339508 -6.529815
v 268.793182 150.048508 -6.399926
v 287.242126 149.560516 -10.935475
v 288.429626 148.551498 -11.227436
v 268.483673 144.968506 -6.323856
v 268.920013 144.823517 -6.431127
v 282.615662 151.750519 19.013525
v 268.715912 144.823517 15.100114
v 268.281708 144.968506 14.984584
v 268.589722 150.048508 15.066515
v 269.115723 151.339508 15.206405
v 272.149628 154.422516 16.013596
v 273.098755 154.559509 16.266106
v 274.167328 154.512512 16.550335
v 275.537231 154.241501 16.914845
v 277.425751 153.685516 17.417255
v 279.930450 152.818512 18.083626
v 286.949371 149.560516 19.950935
v 288.131134 148.551498 20.265345
v 268.396545 145.513153 -5.933766
v 268.303131 145.817810 -5.890736
v 268.109436 145.817810 14.548124
v 268.201996 145.513153 14.592914
v 268.343475 146.457230 -5.887466
v 268.149811 146.457199 14.545624
v 268.506287 147.446732 -5.926376
v 268.311951 147.446716 14.587604
v 268.779877 148.649841 -5.994846
v 268.584076 148.649857 14.661255
v 270.312622 152.318146 -6.381725
v 271.005493 153.193344 -6.561615
v 270.798584 153.193375 15.270095
v 270.109253 152.318146 15.077035
v 271.741180 153.762268 -6.753705
v 271.530487 153.762268 15.476106
v 282.617249 151.405563 18.454004
v 282.882385 151.405563 -9.520926
v 285.334625 150.289413 -10.130365
v 285.057465 150.289413 19.109816
v 288.558685 147.381638 20.072655
v 288.853455 147.381638 -11.026667
v 289.165131 146.502548 -11.105246
v 288.868835 146.502548 20.157135
v 289.260956 145.659882 -11.126026
v 288.964233 145.659882 20.179714
v 288.929749 144.894806 20.165863
v 289.226196 144.894791 -11.112837
v 289.182159 144.583786 -11.103156
v 288.885895 144.583786 20.155354
v 288.816986 144.328171 20.139692
v 289.113007 144.328171 -11.088806
v 289.012817 144.120529 -11.062336
v 288.717346 144.120529 20.111343
v 288.868225 143.949448 -11.021616
v 288.573639 143.949432 20.067833
v 288.651276 143.824020 -10.953066
v 288.267822 143.767822 -10.835166
v 287.976776 143.767822 19.870085
v 288.357910 143.824066 19.995174
v 274.433746 154.148483 -7.436885
v 273.418396 154.198029 -7.181495
v 272.535919 154.077103 -6.957975
v 275.769989 153.883270 -7.767455
v 277.645538 153.333176 -8.229015
v 269.690582 151.197617 -6.223606
v 280.147675 152.469833 -8.845575
v 269.173065 149.939377 -6.093656
v 287.101044 149.244537 -10.574556
v 288.219208 148.283310 -10.861636
v 268.716522 145.284470 -6.014106
v 269.063080 145.176743 -6.107466
v 268.865112 145.176743 14.779214
v 268.520386 145.284470 14.679304
v 268.975311 149.939362 14.767495
v 269.490387 151.197617 14.907235
v 272.321228 154.077103 15.695405
v 273.199280 154.198029 15.935605
v 274.209625 154.148483 16.210205
v 275.539368 153.883286 16.566034
v 277.405823 153.333176 17.063055
v 279.895905 152.469818 17.726944
v 286.815155 149.244537 19.587416
v 287.927704 148.283310 19.895636
vt 0.588300 0.556700
vt 0.585600 0.718400
vt 0.584500 0.556400
vt 0.589400 0.718100
vt 0.593800 0.556500
vt 0.595000 0.718200
vt 0.602800 0.718500
vt 0.601700 0.556100
vt 0.611400 0.555500
vt 0.612500 0.718900
vt 0.653100 0.723200
vt 0.642800 0.552200
vt 0.651900 0.550700
vt 0.659700 0.549100
vt 0.661000 0.724700
vt 0.773900 0.751200
vt 0.751400 0.526000
vt 0.772300 0.521000
vt 0.811300 0.758300
vt 0.817600 0.512700
vt 0.819300 0.758900
vt 0.824700 0.512500
vt 0.826400 0.759000
vt 0.832700 0.758900
vt 0.833700 0.512600
vt 0.835400 0.758800
vt 0.840400 0.758300
vt 0.836300 0.512700
vt 0.838800 0.513000
vt 0.841400 0.513400
vt 0.843100 0.757900
vt 0.849800 0.756200
vt 0.844400 0.514100
vt 0.848200 0.515000
vt 0.278200 0.727600
vt 0.264000 0.732400
vt 0.270700 0.729200
vt 0.286700 0.727300
vt 0.258000 0.737700
vt 0.297700 0.728600
vt 0.252800 0.745200
vt 0.313000 0.731800
vt 0.248300 0.754500
vt 0.333300 0.737000
vt 0.244900 0.764700
vt 0.355600 0.743700
vt 0.242400 0.775000
vt 0.375800 0.750900
vt 0.240900 0.784600
vt 0.390800 0.758000
vt 0.240200 0.792400
vt 0.400700 0.765100
vt 0.240100 0.797900
vt 0.406800 0.772200
vt 0.241500 0.801500
vt 0.410000 0.779500
vt 0.245200 0.803800
vt 0.411400 0.786500
vt 0.248700 0.804700
vt 0.409800 0.800300
vt 0.411300 0.795500
vt 0.410800 0.798000
vt 0.577800 0.720200
vt 0.428200 0.517900
vt 0.576700 0.554700
vt 0.581400 0.719300
vt 0.580200 0.555600
vt 0.623100 0.719600
vt 0.621900 0.554700
vt 0.633800 0.720600
vt 0.644000 0.721800
vt 0.668200 0.726400
vt 0.667000 0.547300
vt 0.675600 0.728200
vt 0.682600 0.543300
vt 0.683900 0.730200
vt 0.694600 0.732900
vt 0.708500 0.536600
vt 0.709800 0.736500
vt 0.728800 0.531600
vt 0.730300 0.741300
vt 0.753000 0.746500
vt 0.790100 0.754700
vt 0.800400 0.514900
vt 0.802100 0.756900
vt 0.838000 0.758600
vt 0.846000 0.757200
vt 0.233400 0.642200
vt 0.247600 0.647000
vt 0.224900 0.642000
vt 0.253500 0.652300
vt 0.213900 0.643300
vt 0.258800 0.659900
vt 0.198600 0.646400
vt 0.263200 0.669100
vt 0.178200 0.651700
vt 0.266700 0.679300
vt 0.155900 0.658300
vt 0.269100 0.689700
vt 0.135700 0.665500
vt 0.270600 0.699200
vt 0.120800 0.672700
vt 0.271400 0.707000
vt 0.110800 0.679700
vt 0.271400 0.712600
vt 0.104800 0.686900
vt 0.270000 0.716100
vt 0.101500 0.694100
vt 0.266300 0.718500
vt 0.100200 0.701100
vt 0.262800 0.719300
vt 0.100100 0.707400
vt 0.101700 0.714900
vt 0.100300 0.710100
vt 0.411500 0.792800
vt 0.401700 0.804700
vt 0.405600 0.804000
vt 0.408200 0.802400
vt 0.109900 0.719300
vt 0.106000 0.718600
vt 0.103400 0.717000
vt 0.589400 0.718100
vt 0.584500 0.556400
vt 0.585600 0.718400
vt 0.593800 0.556500
vt 0.588300 0.556700
vt 0.595000 0.718200
vt 0.601700 0.556100
vt 0.612500 0.718900
vt 0.611400 0.555500
vt 0.653100 0.723200
vt 0.642800 0.552200
vt 0.644000 0.721800
vt 0.651900 0.550700
vt 0.661000 0.724700
vt 0.659700 0.549100
vt 0.753000 0.746500
vt 0.772300 0.521000
vt 0.751400 0.526000
vt 0.811300 0.758300
vt 0.817600 0.512700
vt 0.809700 0.513500
vt 0.819300 0.758900
vt 0.824700 0.512500
vt 0.832700 0.758900
vt 0.833700 0.512600
vt 0.831000 0.512500
vt 0.836300 0.512700
vt 0.840400 0.758300
vt 0.838800 0.513000
vt 0.841400 0.513400
vt 0.849800 0.756200
vt 0.844400 0.514100
vt 0.846000 0.757200
vt 0.264000 0.732400
vt 0.278200 0.727600
vt 0.270700 0.729200
vt 0.258000 0.737700
vt 0.286700 0.727300
vt 0.252800 0.745200
vt 0.297700 0.728600
vt 0.248300 0.754500
vt 0.313000 0.731800
vt 0.244900 0.764700
vt 0.333300 0.737000
vt 0.242400 0.775000
vt 0.355600 0.743700
vt 0.240900 0.784600
vt 0.375800 0.750900
vt 0.240200 0.792400
vt 0.390800 0.758000
vt 0.240100 0.797900
vt 0.400700 0.765100
vt 0.241500 0.801500
vt 0.406800 0.772200
vt 0.245200 0.803800
vt 0.410000 0.779500
vt 0.248700 0.804700
vt 0.411400 0.786500
vt 0.411300 0.795500
vt 0.409800 0.800300
vt 0.410800 0.798000
vt 0.428200 0.517900
vt 0.577800 0.720200
vt 0.576700 0.554700
vt 0.581400 0.719300
vt 0.580200 0.555600
vt 0.621900 0.554700
vt 0.633800 0.720600
vt 0.632600 0.553600
vt 0.668200 0.726400
vt 0.667000 0.547300
vt 0.674400 0.545400
vt 0.675600 0.728200
vt 0.683900 0.730200
vt 0.682600 0.543300
vt 0.693300 0.540500
vt 0.694600 0.732900
vt 0.708500 0.536600
vt 0.709800 0.736500
vt 0.728800 0.531600
vt 0.730300 0.741300
vt 0.790100 0.754700
vt 0.788500 0.517300
vt 0.800400 0.514900
vt 0.802100 0.756900
vt 0.826400 0.759000
vt 0.835400 0.758800
vt 0.838000 0.758600
vt 0.247600 0.647000
vt 0.233400 0.642200
vt 0.224900 0.642000
vt 0.253500 0.652300
vt 0.213900 0.643300
vt 0.258800 0.659900
vt 0.198600 0.646400
vt 0.263200 0.669100
vt 0.178200 0.651700
vt 0.266700 0.679300
vt 0.155900 0.658300
vt 0.269100 0.689700
vt 0.135700 0.665500
vt 0.270600 0.699200
vt 0.120800 0.672700
vt 0.271400 0.707000
vt 0.110800 0.679700
vt 0.271400 0.712600
vt 0.104800 0.686900
vt 0.270000 0.716100
vt 0.101500 0.694100
vt 0.266300 0.718500
vt 0.100200 0.701100
vt 0.262800 0.719300
vt 0.100100 0.707400
vt 0.100300 0.710100
vt 0.101700 0.714900
vt 0.401700 0.804700
vt 0.411500 0.792800
vt 0.405600 0.804000
vt 0.408200 0.802400
vt 0.109900 0.719300
vt 0.106000 0.718600
vt 0.103400 0.717000
vt 0.809700 0.513500
vt 0.831000 0.512500
vt 0.429900 0.759000
vt 0.632600 0.553600
vt 0.674400 0.545400
vt 0.693300 0.540500
vt 0.788500 0.517300
vt 0.240800 0.643800
vt 0.100700 0.712600
vt 0.602800 0.718500
vt 0.773900 0.751200
vt 0.843100 0.757900
vt 0.848200 0.515000
vt 0.429900 0.759000
vt 0.623100 0.719600
vt 0.240800 0.643800
vt 0.100700 0.712600
vn -0.9935 -0.1131 -0.0094
vn -0.8043 -0.5942 -0.0076
vn -0.9935 -0.1133 -0.0094
vn -0.9929 0.1189 -0.0094
vn -0.9929 0.1187 -0.0094
vn -0.9812 0.1926 -0.0093
vn -0.9665 0.2566 -0.0092
vn -0.6993 0.7148 -0.0066
vn -0.8311 0.5561 -0.0079
vn -0.4862 0.8739 -0.0046
vn -0.4862 0.8738 -0.0046
vn 0.4673 0.8841 0.0044
vn 0.3917 0.9201 0.0037
vn 0.4672 0.8841 0.0044
vn 0.8918 0.4524 0.0085
vn 0.9753 0.2207 0.0092
vn 0.9995 0.0303 0.0095
vn 0.9995 0.0305 0.0095
vn 0.9949 -0.0941 -0.0364
vn 0.6025 -0.1603 0.7818
vn 0.6171 -0.1607 -0.7703
vn 0.8315 -0.5532 -0.0507
vn 0.5729 -0.2854 0.7683
vn 0.8304 -0.5532 0.0665
vn 0.6358 -0.7718 0.0060
vn 0.0335 -0.9994 0.0003
vn 0.3210 -0.9471 0.0030
vn 0.0334 -0.9994 0.0003
vn -0.2387 -0.0001 -0.9711
vn -0.2387 0.0000 -0.9711
vn -0.2388 0.0000 -0.9711
vn -0.2387 0.0001 -0.9711
vn 0.5870 -0.2854 -0.7576
vn -0.1774 -0.9841 -0.0017
vn -0.4451 -0.8954 -0.0042
vn -0.4452 -0.8954 -0.0042
vn -0.9416 0.3367 -0.0089
vn -0.9008 0.4342 -0.0085
vn -0.2435 0.9699 -0.0023
vn -0.0347 0.9994 -0.0003
vn 0.1309 0.9914 0.0012
vn 0.2448 0.9696 0.0023
vn 0.3075 0.9515 0.0029
vn 0.3076 0.9515 0.0029
vn 0.3472 0.9378 0.0033
vn 0.5891 0.8081 0.0056
vn 0.7466 0.6652 0.0071
vn 0.3209 -0.9471 0.0030
vn -0.2571 -0.0001 0.9664
vn -0.2571 0.0000 0.9664
vn -0.2571 0.0001 0.9664
vn 0.9940 -0.0940 0.0552
vn -0.2388 0.0001 -0.9711
vn -0.2385 -0.0001 -0.9711
vn -0.2391 0.0002 -0.9710
vn -0.2572 0.0000 0.9663
vn -0.2574 0.0002 0.9663
vn 0.9922 0.1241 0.0094
vn 0.7905 0.6124 0.0075
vn 0.7904 0.6125 0.0075
vn 0.9935 -0.1132 0.0094
vn 0.9812 -0.1926 0.0093
vn 0.9662 -0.2577 0.0092
vn 0.6936 -0.7204 0.0066
vn 0.8284 -0.5601 0.0079
vn 0.8283 -0.5602 0.0079
vn 0.6936 -0.7203 0.0066
vn 0.4781 -0.8783 0.0045
vn -0.3932 -0.9194 -0.0037
vn -0.4701 -0.8826 -0.0045
vn -0.8937 -0.4485 -0.0085
vn -0.9753 -0.2205 -0.0092
vn -0.8937 -0.4486 -0.0085
vn -0.9994 -0.0336 -0.0095
vn -0.9952 0.0925 0.0318
vn -0.6052 0.1642 -0.7789
vn -0.9944 0.0928 -0.0507
vn -0.5200 0.2669 -0.8114
vn -0.8406 0.5392 0.0515
vn -0.8394 0.5394 -0.0670
vn -0.6626 0.7490 -0.0063
vn -0.0554 0.9985 -0.0005
vn -0.3628 0.9319 -0.0034
vn -0.3630 0.9318 -0.0034
vn 0.2451 0.0087 0.9695
vn 0.2445 0.0107 0.9696
vn 0.2432 0.0161 0.9698
vn 0.2456 0.0028 0.9694
vn 0.2429 0.0169 0.9699
vn 0.2452 -0.0015 0.9695
vn 0.2421 0.0154 0.9701
vn 0.2442 -0.0026 0.9697
vn 0.2416 0.0118 0.9703
vn 0.2430 -0.0011 0.9700
vn 0.2415 0.0084 0.9704
vn 0.2424 0.0003 0.9702
vn 0.2419 0.0037 0.9703
vn 0.2423 0.0009 0.9702
vn 0.2427 -0.0018 0.9701
vn 0.2441 -0.0160 0.9696
vn 0.2434 -0.0074 0.9699
vn 0.2474 -0.0651 0.9667
vn 0.2427 -0.0036 0.9701
vn 0.2475 -0.0781 0.9657
vn 0.2410 0.0082 0.9705
vn 0.2422 -0.0194 0.9700
vn 0.2409 0.0089 0.9705
vn 0.2422 -0.1134 0.9636
vn 0.2411 0.0095 0.9705
vn -0.6105 0.1685 0.7739
vn -0.5745 0.2758 0.7706
vn 0.1682 0.9858 0.0016
vn 0.1682 0.9857 0.0016
vn 0.4242 0.9056 0.0040
vn 0.4243 0.9055 0.0040
vn 0.9410 -0.3382 0.0089
vn 0.8997 -0.4365 0.0085
vn 0.2358 -0.9718 0.0022
vn 0.0287 -0.9996 0.0003
vn -0.1341 -0.9910 -0.0013
vn -0.2456 -0.9694 -0.0023
vn -0.3080 -0.9514 -0.0029
vn -0.3079 -0.9514 -0.0029
vn -0.3480 -0.9375 -0.0033
vn -0.3479 -0.9375 -0.0033
vn -0.5933 -0.8050 -0.0056
vn -0.7508 -0.6605 -0.0071
vn -0.9994 -0.0338 -0.0095
vn 0.2634 0.0088 -0.9646
vn 0.2629 0.0106 -0.9648
vn 0.2612 0.0170 -0.9651
vn 0.2639 0.0029 -0.9646
vn 0.2605 0.0155 -0.9654
vn 0.2636 -0.0016 -0.9646
vn 0.2599 0.0118 -0.9656
vn 0.2625 -0.0027 -0.9649
vn 0.2599 0.0084 -0.9656
vn 0.2613 -0.0011 -0.9652
vn 0.2603 0.0036 -0.9655
vn 0.2606 0.0007 -0.9654
vn 0.2610 -0.0018 -0.9653
vn 0.2606 0.0009 -0.9654
vn 0.2618 -0.0074 -0.9651
vn 0.2625 -0.0160 -0.9648
vn 0.2611 -0.0036 -0.9653
vn 0.2656 -0.0651 -0.9619
vn 0.2594 0.0082 -0.9657
vn 0.2658 -0.0781 -0.9609
vn 0.2593 0.0090 -0.9658
vn 0.2605 -0.0193 -0.9653
vn 0.2594 0.0095 -0.9657
vn 0.2604 -0.1133 -0.9588
vn 0.2686 0.0149 -0.9631
vn 0.2546 0.0217 0.9668
vn 0.2503 0.0148 0.9681
vn 0.3001 -0.0188 0.9537
vn 0.3127 -0.0268 0.9495
vn 0.2902 -0.0176 0.9568
vn 0.2728 0.0217 -0.9618
vn 0.3179 -0.0187 -0.9479
vn 0.3306 -0.0267 -0.9434
vn 0.3091 -0.0179 -0.9509
vn 0.5890 0.8081 0.0056
vn -0.6626 0.7489 -0.0063
vn 0.9411 -0.3381 0.0089
vn 0.2615 0.0161 -0.9651
s 1
f 1/1/1 3/2/2 4/3/2
f 2/4/3 6/5/4 5/6/5
f 7/7/6 6/5/4 8/8/6
f 7/7/6 10/9/7 9/10/7
f 12/11/8 14/12/9 11/13/8
f 12/11/8 16/14/10 15/15/11
f 17/16/12 19/17/13 20/18/14
f 22/19/15 24/20/16 21/21/16
f 21/21/16 26/22/17 25/23/18
f 28/24/19 30/25/20 27/26/21
f 31/27/22 33/28/23 34/29/24
f 31/27/22 36/30/25 35/31/25
f 38/32/26 40/33/27 37/34/28
f 41/35/29 15/36/30 43/37/31
f 42/38/32 12/39/30 15/36/30
f 44/40/30 13/41/30 12/39/30
f 45/42/30 47/43/30 13/41/30
f 46/44/30 48/45/30 47/43/30
f 18/46/30 9/47/30 48/45/30
f 17/48/30 7/49/30 9/47/30
f 49/50/30 5/51/30 7/49/30
f 50/52/30 2/53/30 5/51/30
f 22/54/30 3/55/32 2/53/30
f 21/56/30 51/57/30 3/55/32
f 25/58/30 52/59/29 51/57/30
f 31/60/22 27/61/21 32/62/33
f 52/63/34 37/64/28 54/65/34
f 54/65/34 51/66/35 52/63/34
f 55/67/36 3/2/2 51/66/35
f 48/68/37 10/9/7 56/69/37
f 56/69/37 47/70/38 48/68/37
f 47/70/38 14/12/9 13/71/9
f 16/14/10 43/72/39 15/15/11
f 58/73/39 41/74/40 43/72/39
f 41/74/40 60/75/41 42/76/41
f 60/75/41 44/77/42 42/76/41
f 44/77/42 62/78/43 45/79/44
f 45/79/44 63/80/45 46/81/45
f 63/80/45 18/82/13 46/81/45
f 20/18/14 49/83/46 17/16/12
f 49/83/46 65/84/47 50/85/47
f 65/84/47 22/19/15 50/85/47
f 26/22/17 28/24/19 25/23/18
f 30/25/20 32/86/33 27/26/21
f 35/31/25 40/33/27 39/87/48
f 59/88/49 16/89/50 60/90/51
f 60/90/51 11/91/49 61/92/50
f 61/92/50 14/93/50 62/94/50
f 62/94/50 57/95/50 63/96/50
f 63/96/50 56/97/50 19/98/50
f 19/98/50 10/99/50 20/100/50
f 20/100/50 8/101/50 64/102/50
f 64/102/50 6/103/50 65/104/50
f 65/104/50 1/105/50 23/106/50
f 23/106/50 4/107/51 24/108/50
f 24/108/50 55/109/50 26/110/50
f 26/110/50 54/111/51 29/112/50
f 34/113/24 30/114/20 29/112/52
f 52/59/29 28/115/30 38/116/31
f 28/115/30 39/117/53 38/116/31
f 28/115/30 35/118/54 39/117/53
f 28/115/30 31/60/55 35/118/54
f 54/111/51 37/119/50 29/112/50
f 29/112/50 37/119/50 40/120/50
f 29/112/50 40/120/50 36/121/56
f 29/112/50 36/121/56 34/113/57
f 67/122/58 69/123/59 66/124/60
f 67/122/58 71/125/61 68/126/58
f 70/127/61 73/128/62 71/125/61
f 73/128/62 74/129/63 75/130/63
f 77/131/64 79/132/65 76/133/66
f 78/134/67 80/135/68 81/136/68
f 83/137/69 85/138/70 82/139/69
f 87/140/71 89/141/72 86/142/73
f 88/143/72 91/144/74 89/141/72
f 93/145/75 95/146/76 92/147/77
f 96/148/78 98/149/79 99/150/80
f 98/149/79 101/151/81 99/150/80
f 103/152/82 105/153/83 102/154/84
f 80/155/85 107/156/86 108/157/87
f 77/158/88 106/159/89 80/155/85
f 76/160/90 109/161/91 77/158/88
f 111/162/92 110/163/93 76/160/90
f 113/164/94 112/165/95 111/162/92
f 74/166/96 83/167/97 113/164/94
f 72/168/98 84/169/99 74/166/96
f 70/170/100 114/171/101 72/168/98
f 67/172/102 115/173/103 70/170/100
f 66/174/104 87/175/105 67/172/102
f 116/176/106 88/177/107 66/174/104
f 117/178/108 90/179/109 116/176/106
f 94/180/110 98/181/79 97/182/111
f 104/183/82 117/184/112 118/185/113
f 118/185/113 116/186/114 119/187/115
f 119/187/115 66/124/60 69/123/59
f 74/129/63 120/188/116 75/130/63
f 120/188/116 111/189/117 121/190/117
f 79/132/65 111/189/117 76/133/66
f 81/136/68 108/191/118 122/192/118
f 123/193/119 108/191/118 107/194/119
f 123/193/119 106/195/120 124/196/120
f 125/197/121 106/195/120 109/198/121
f 126/199/122 109/198/121 110/200/123
f 127/201/124 110/200/123 112/202/125
f 127/201/124 83/137/69 82/139/69
f 85/138/70 114/203/126 128/204/126
f 129/205/127 114/203/126 115/206/127
f 129/205/127 87/140/71 86/142/73
f 92/147/77 90/207/128 93/145/75
f 96/148/78 94/208/110 97/209/111
f 101/151/81 102/154/84 105/153/83
f 81/210/129 123/211/130 124/212/131
f 78/213/132 124/212/131 125/214/133
f 79/215/134 125/214/133 126/216/135
f 121/217/136 126/216/135 127/218/137
f 120/219/138 127/218/137 82/220/139
f 75/221/140 82/220/139 85/222/141
f 73/223/142 85/222/141 128/224/143
f 71/225/144 128/224/143 129/226/145
f 68/227/146 129/226/145 86/228/147
f 69/229/148 86/228/147 89/230/149
f 119/231/150 89/230/149 91/232/151
f 118/233/152 91/232/151 92/234/153
f 95/235/76 99/236/80 92/234/77
f 103/237/154 93/238/155 117/178/108
f 103/237/154 102/239/156 93/238/155
f 102/239/156 100/240/157 93/238/155
f 100/240/157 98/181/158 93/238/155
f 92/234/153 104/241/159 118/233/152
f 105/242/160 104/241/159 92/234/153
f 101/243/161 105/242/160 92/234/153
f 99/236/162 101/243/161 92/234/153
f 1/1/1 2/4/3 3/2/2
f 2/4/3 1/1/1 6/5/4
f 7/7/6 5/6/5 6/5/4
f 7/7/6 8/8/6 10/9/7
f 12/11/8 13/71/9 14/12/9
f 12/11/8 11/13/8 16/14/10
f 17/16/12 18/82/13 19/17/13
f 22/19/15 23/244/15 24/20/16
f 21/21/16 24/20/16 26/22/17
f 28/24/19 29/245/52 30/25/20
f 31/27/22 32/86/33 33/28/23
f 31/27/22 34/29/24 36/30/25
f 38/32/26 39/87/48 40/33/27
f 41/35/29 42/38/32 15/36/30
f 42/38/32 44/40/30 12/39/30
f 44/40/30 45/42/30 13/41/30
f 45/42/30 46/44/30 47/43/30
f 46/44/30 18/46/30 48/45/30
f 18/46/30 17/48/30 9/47/30
f 17/48/30 49/50/30 7/49/30
f 49/50/30 50/52/30 5/51/30
f 50/52/30 22/54/30 2/53/30
f 22/54/30 21/56/30 3/55/32
f 21/56/30 25/58/30 51/57/30
f 25/58/30 28/115/30 52/59/29
f 31/60/22 28/115/19 27/61/21
f 52/63/34 38/246/26 37/64/28
f 54/65/34 55/67/36 51/66/35
f 55/67/36 4/3/2 3/2/2
f 48/68/37 9/10/7 10/9/7
f 56/69/37 57/247/38 47/70/38
f 47/70/38 57/247/38 14/12/9
f 16/14/10 58/73/39 43/72/39
f 58/73/39 59/248/40 41/74/40
f 41/74/40 59/248/40 60/75/41
f 60/75/41 61/249/42 44/77/42
f 44/77/42 61/249/42 62/78/43
f 45/79/44 62/78/43 63/80/45
f 63/80/45 19/17/13 18/82/13
f 20/18/14 64/250/163 49/83/46
f 49/83/46 64/250/163 65/84/47
f 65/84/47 23/244/15 22/19/15
f 26/22/17 29/245/52 28/24/19
f 30/25/20 33/28/23 32/86/33
f 35/31/25 36/30/25 40/33/27
f 59/88/49 58/251/49 16/89/50
f 60/90/51 16/89/50 11/91/49
f 61/92/50 11/91/49 14/93/50
f 62/94/50 14/93/50 57/95/50
f 63/96/50 57/95/50 56/97/50
f 19/98/50 56/97/50 10/99/50
f 20/100/50 10/99/50 8/101/50
f 64/102/50 8/101/50 6/103/50
f 65/104/50 6/103/50 1/105/50
f 23/106/50 1/105/50 4/107/51
f 24/108/50 4/107/51 55/109/50
f 26/110/50 55/109/50 54/111/51
f 34/113/24 33/252/23 30/114/20
f 67/122/58 68/126/58 69/123/59
f 67/122/58 70/127/61 71/125/61
f 70/127/61 72/253/62 73/128/62
f 73/128/62 72/253/62 74/129/63
f 77/131/64 78/134/67 79/132/65
f 78/134/67 77/131/64 80/135/68
f 83/137/69 84/254/70 85/138/70
f 87/140/71 88/143/72 89/141/72
f 88/143/72 90/207/128 91/144/74
f 93/145/75 94/208/110 95/146/76
f 96/148/78 97/209/111 98/149/79
f 98/149/79 100/255/164 101/151/81
f 103/152/82 104/256/82 105/153/83
f 80/155/85 106/159/89 107/156/86
f 77/158/88 109/161/91 106/159/89
f 76/160/90 110/163/93 109/161/91
f 111/162/92 112/165/95 110/163/93
f 113/164/94 83/167/97 112/165/95
f 74/166/96 84/169/99 83/167/97
f 72/168/98 114/171/101 84/169/99
f 70/170/100 115/173/103 114/171/101
f 67/172/102 87/175/105 115/173/103
f 66/174/104 88/177/107 87/175/105
f 116/176/106 90/179/109 88/177/107
f 117/178/108 93/238/155 90/179/109
f 94/180/110 93/238/75 98/181/79
f 104/183/82 103/257/82 117/184/112
f 118/185/113 117/184/112 116/186/114
f 119/187/115 116/186/114 66/124/60
f 74/129/63 113/258/165 120/188/116
f 120/188/116 113/258/165 111/189/117
f 79/132/65 121/190/117 111/189/117
f 81/136/68 80/135/68 108/191/118
f 123/193/119 122/192/118 108/191/118
f 123/193/119 107/194/119 106/195/120
f 125/197/121 124/196/120 106/195/120
f 126/199/122 125/197/121 109/198/121
f 127/201/124 126/199/122 110/200/123
f 127/201/124 112/202/125 83/137/69
f 85/138/70 84/254/70 114/203/126
f 129/205/127 128/204/126 114/203/126
f 129/205/127 115/206/127 87/140/71
f 92/147/77 91/144/74 90/207/128
f 96/148/78 95/146/76 94/208/110
f 101/151/81 100/255/164 102/154/84
f 81/210/129 122/259/166 123/211/130
f 78/213/132 81/210/129 124/212/131
f 79/215/134 78/213/132 125/214/133
f 121/217/136 79/215/134 126/216/135
f 120/219/138 121/217/136 127/218/137
f 75/221/140 120/219/138 82/220/139
f 73/223/142 75/221/140 85/222/141
f 71/225/144 73/223/142 128/224/143
f 68/227/146 71/225/144 129/226/145
f 69/229/148 68/227/146 86/228/147
f 119/231/150 69/229/148 89/230/149
f 118/233/152 119/231/150 91/232/151
f 95/235/76 96/260/78 99/236/80
