# Blender v2.79 (sub 0) OBJ File: ''
# www.blender.org
o Cube
v 0.522084 8.808164 -10.991527
v 0.522084 8.808164 10.991528
v -0.522084 8.808164 10.991526
v -0.522084 8.808164 -10.991531
v 0.522084 -8.808164 -10.991522
v 0.522084 -8.808164 10.991534
v -0.522084 -8.808164 10.991524
v -0.522084 -8.808164 -10.991528
vt 1.000000 0.000000
vt 0.000000 0.000000
vt 0.000000 1.000000
vt 1.000000 0.000000
vt 0.000000 0.000000
vt 0.000000 1.000000
vt 1.000000 0.000000
vt 0.000000 1.000000
vt 1.000000 0.000000
vt 0.000000 0.000000
vt 0.000000 1.000000
vt 0.000000 0.000000
vt 1.000000 1.000000
vt 1.000000 0.000000
vt 0.000000 1.000000
vt 1.000000 1.000000
vt 1.000000 1.000000
vt 1.000000 1.000000
vt 1.000000 0.000000
vt 1.000000 1.000000
vn 0.0000 1.0000 0.0000
vn 0.0000 -1.0000 0.0000
vn 1.0000 0.0000 0.0000
vn -0.0000 0.0000 1.0000
vn -1.0000 0.0000 -0.0000
vn 0.0000 -0.0000 -1.0000
s off
f 2/1/1 1/2/1 4/3/1
f 8/4/2 5/5/2 6/6/2
f 5/7/3 1/2/3 2/8/3
f 6/9/4 2/10/4 3/11/4
f 3/12/5 4/3/5 8/13/5
f 1/14/6 5/5/6 8/15/6
f 2/1/1 4/3/1 3/16/1
f 8/4/2 6/6/2 7/17/2
f 5/7/3 2/8/3 6/18/3
f 6/9/4 3/11/4 7/17/4
f 3/12/5 8/13/5 7/19/5
f 1/14/6 8/15/6 4/20/6
