# Blender v2.79 (sub 0) OBJ File: ''
# www.blender.org
o Cube
v 0.058112 -0.649144 -0.589262
v 0.058112 -0.649144 0.589263
v -0.058113 -0.649144 0.589262
v -0.058112 -0.649144 -0.589263
v 0.058113 0.649144 -0.589262
v 0.058112 0.649144 0.589263
v -0.058113 0.649144 0.589262
v -0.058112 0.649144 -0.589263
v 0.058112 -0.649144 0.000000
v 0.000000 -0.649144 -0.589263
v 0.058113 0.000000 -0.589262
v 0.000000 -0.649144 0.589262
v 0.058112 0.000000 0.589263
v -0.058112 -0.649144 -0.000000
v -0.058113 0.000000 0.589262
v -0.058112 0.000000 -0.589263
v 0.058112 0.649144 0.000000
v 0.000000 0.649144 -0.589262
v -0.000000 0.649144 0.589263
v -0.058113 0.649144 -0.000000
v 0.000000 0.000000 -0.589263
v -0.058112 0.000000 -0.000000
v -0.000000 0.000000 0.589263
v 0.058112 0.000000 0.000000
v -0.000000 0.649144 0.000000
v 0.000000 -0.649144 -0.000000
v 0.058112 -0.649144 0.294631
v -0.029056 -0.649144 -0.589263
v 0.058113 0.324572 -0.589262
v -0.029056 -0.649144 0.589262
v 0.058112 0.324572 0.589263
v -0.058112 -0.649144 -0.294631
v -0.058113 0.324572 0.589262
v -0.058112 0.324572 -0.589263
v 0.058112 0.649144 0.294632
v -0.029056 0.649144 -0.589262
v -0.029056 0.649144 0.589262
v -0.058112 0.649144 -0.294631
v 0.058112 -0.649144 -0.294631
v 0.029056 -0.649144 -0.589263
v 0.058113 -0.324572 -0.589262
v 0.029056 -0.649144 0.589262
v 0.058112 -0.324572 0.589263
v -0.058112 -0.649144 0.294631
v -0.058113 -0.324572 0.589262
v -0.058112 -0.324572 -0.589263
v 0.058113 0.649144 -0.294631
v 0.029056 0.649144 -0.589262
v 0.029056 0.649144 0.589263
v -0.058113 0.649144 0.294631
v -0.029056 0.000000 -0.589263
v 0.029056 0.000000 -0.589262
v 0.000000 0.324572 -0.589262
v 0.000000 -0.324572 -0.589263
v -0.058112 0.000000 -0.294631
v -0.058113 0.000000 0.294631
v -0.058112 -0.324572 -0.000000
v -0.058112 0.324572 -0.000000
v -0.029056 0.000000 0.589262
v 0.029056 0.000000 0.589263
v -0.000000 -0.324572 0.589262
v -0.000000 0.324572 0.589263
v 0.058112 0.000000 0.294631
v 0.058113 0.000000 -0.294631
v 0.058112 -0.324572 0.000000
v 0.058112 0.324572 0.000000
v -0.000000 0.649144 0.294631
v 0.000000 0.649144 -0.294631
v 0.029056 0.649144 0.000000
v -0.029056 0.649144 0.000000
v -0.029056 -0.649144 -0.000000
v 0.029056 -0.649144 -0.000000
v 0.000000 -0.649144 -0.294631
v 0.000000 -0.649144 0.294631
v 0.029056 -0.649144 0.294631
v 0.029056 -0.649144 -0.294631
v -0.029056 -0.649144 -0.294631
v -0.029056 0.649144 -0.294631
v 0.029056 0.649144 -0.294631
v 0.029056 0.649144 0.294631
v 0.058113 0.324572 -0.294631
v 0.058112 -0.324572 -0.294631
v 0.058112 -0.324572 0.294631
v 0.029056 0.324572 0.589263
v 0.029056 -0.324572 0.589263
v -0.029056 -0.324572 0.589262
v -0.058113 0.324572 0.294631
v -0.058113 -0.324572 0.294631
v -0.058112 -0.324572 -0.294631
v 0.029056 -0.324572 -0.589262
v 0.029056 0.324572 -0.589262
v -0.029056 0.324572 -0.589263
v -0.029056 -0.324572 -0.589263
v -0.058112 0.324572 -0.294631
v -0.029056 0.324572 0.589262
v 0.058112 0.324572 0.294632
v -0.029056 0.649144 0.294631
v -0.029056 -0.649144 0.294631
vt 0.250370 0.990626
vt -0.001025 0.495836
vt 0.249487 0.497178
vt 0.751395 0.993309
vt 0.500000 0.498520
vt 0.750512 0.499862
vt 0.499118 0.005072
vt 0.749630 0.006414
vt 1.001025 0.501204
vt 1.000142 0.007756
vt 1.001907 0.994651
vt -0.001908 0.002388
vt 0.248605 0.003730
vt 0.500882 0.991967
vt -0.000142 0.989284
vt 0.000000 0.000000
vt 0.000000 0.000000
vt 0.000000 0.000000
vt 0.000000 0.000000
vt 0.000000 0.000000
vt 0.000000 0.000000
vt 0.000000 0.000000
vt 0.000000 0.000000
vt 0.000000 0.000000
vt 0.000000 0.000000
vt 0.000000 0.000000
vt 0.000000 0.000000
vt 0.000000 0.000000
vt 0.000000 0.000000
vt 0.000000 0.000000
vt 0.000000 0.000000
vt 0.000000 0.000000
vt 0.000000 0.000000
vt 0.000000 0.000000
vt 0.000000 0.000000
vt 0.000000 0.000000
vt 0.000000 0.000000
vt 0.000000 0.000000
vt 0.000000 0.000000
vt 0.000000 0.000000
vt 0.000000 0.000000
vt 0.000000 0.000000
vt 0.000000 0.000000
vt 0.000000 0.000000
vt 0.000000 0.000000
vt 0.000000 0.000000
vt 0.000000 0.000000
vt 0.000000 0.000000
vt 0.000000 0.000000
vt 0.000000 0.000000
vt 0.000000 0.000000
vt 0.000000 0.000000
vt 0.000000 0.000000
vt 0.000000 0.000000
vt 0.000000 0.000000
vt 0.000000 0.000000
vt 0.000000 0.000000
vt 0.000000 0.000000
vt 0.000000 0.000000
vt 0.000000 0.000000
vt 0.000000 0.000000
vt 0.000000 0.000000
vt 0.000000 0.000000
vt 0.000000 0.000000
vt 0.000000 0.000000
vt 0.000000 0.000000
vt 0.000000 0.000000
vt 0.000000 0.000000
vt 0.000000 0.000000
vt 0.000000 0.000000
vt 0.000000 0.000000
vt 0.000000 0.000000
vt 0.000000 0.000000
vt 0.000000 0.000000
vt 0.000000 0.000000
vt 0.000000 0.000000
vt 0.000000 0.000000
vt 0.000000 0.000000
vt 0.000000 0.000000
vt 0.000000 0.000000
vt 0.000000 0.000000
vt 0.000000 0.000000
vt 0.000000 0.000000
vt 0.000000 0.000000
vt 0.000000 0.000000
vt 0.000000 0.000000
vt 0.000000 0.000000
vt 0.000000 0.000000
vt 0.000000 0.000000
vt 0.000000 0.000000
vt 0.000000 0.000000
vt 0.000000 0.000000
vt 0.000000 0.000000
vt 0.000000 0.000000
vt 0.000000 0.000000
vt 0.000000 0.000000
vt 0.000000 0.000000
vt 0.000000 0.000000
vt 0.000000 0.000000
vt 0.000000 0.000000
vt 0.000000 0.000000
vt 0.000000 0.000000
vt 0.000000 0.000000
vt 0.000000 0.000000
vt 0.000000 0.000000
vt 0.000000 0.000000
vt 0.000000 0.000000
vt 0.000000 0.000000
vt 0.000000 0.000000
vt 0.000000 0.000000
vn 1.0000 0.0000 0.0000
vn 0.0000 -1.0000 0.0000
vn 0.0000 1.0000 0.0000
vn -0.0000 -0.0000 1.0000
vn -1.0000 0.0000 -0.0000
vn 0.0000 0.0000 -1.0000
s off
f 35/1/1 31/2/1 96/3/1
f 47/4/1 66/5/1 81/6/1
f 81/6/1 24/7/1 64/8/1
f 29/9/1 64/8/1 11/10/1
f 5/11/1 81/6/1 29/9/1
f 96/3/1 13/12/1 63/13/1
f 66/5/1 63/13/1 24/7/1
f 17/14/1 96/3/1 66/5/1
f 35/1/1 6/15/1 31/2/1
f 47/4/1 17/14/1 66/5/1
f 81/6/1 66/5/1 24/7/1
f 29/9/1 81/6/1 64/8/1
f 5/11/1 47/4/1 81/6/1
f 96/3/1 31/2/1 13/12/1
f 66/5/1 96/3/1 63/13/1
f 17/14/1 35/1/1 96/3/1
f 30/16/2 44/17/2 98/18/2
f 50/19/3 37/20/3 97/21/3
f 37/20/4 33/22/4 95/23/4
f 94/24/5 8/25/5 34/26/5
f 28/27/6 46/28/6 93/29/6
f 51/30/6 34/26/6 92/31/6
f 52/32/6 53/33/6 91/34/6
f 40/35/6 54/36/6 90/37/6
f 55/38/5 46/28/5 89/39/5
f 56/40/5 57/41/5 88/42/5
f 50/19/5 58/43/5 87/44/5
f 59/45/4 45/46/4 86/47/4
f 60/48/4 61/49/4 85/50/4
f 49/51/4 62/52/4 84/53/4
f 63/54/1 43/55/1 83/56/1
f 64/57/1 65/58/1 82/59/1
f 80/60/3 19/61/3 49/51/3
f 68/62/3 69/63/3 79/64/3
f 78/65/3 20/66/3 70/67/3
f 71/68/2 32/69/2 77/70/2
f 72/71/2 73/72/2 76/73/2
f 75/74/2 12/75/2 74/76/2
f 72/71/2 74/76/2 26/77/2
f 9/78/2 75/74/2 72/71/2
f 27/79/2 42/80/2 75/74/2
f 40/35/2 73/72/2 10/81/2
f 39/82/2 40/35/2 1/83/2
f 39/82/2 72/71/2 76/73/2
f 77/70/2 4/84/2 28/27/2
f 10/81/2 77/70/2 28/27/2
f 73/72/2 71/68/2 77/70/2
f 78/65/3 25/85/3 68/62/3
f 36/86/3 68/62/3 18/87/3
f 36/86/3 38/88/3 78/65/3
f 79/64/3 17/89/3 47/90/3
f 48/91/3 47/90/3 5/92/3
f 18/87/3 79/64/3 48/91/3
f 80/60/3 6/93/3 35/94/3
f 69/63/3 35/94/3 17/89/3
f 69/63/3 67/95/3 80/60/3
f 82/59/1 9/78/1 39/82/1
f 41/96/1 39/82/1 1/83/1
f 11/97/1 82/59/1 41/96/1
f 83/56/1 2/98/1 27/79/1
f 65/58/1 27/79/1 9/78/1
f 24/99/1 83/56/1 65/58/1
f 84/53/4 23/100/4 60/48/4
f 31/101/4 60/48/4 13/102/4
f 6/93/4 84/53/4 31/101/4
f 85/50/4 12/75/4 42/80/4
f 43/55/4 42/80/4 2/98/4
f 13/102/4 85/50/4 43/55/4
f 86/47/4 3/103/4 30/16/4
f 61/49/4 30/16/4 12/75/4
f 23/100/4 86/47/4 61/49/4
f 87/44/5 22/104/5 56/40/5
f 33/22/5 56/40/5 15/105/5
f 7/106/5 87/44/5 33/22/5
f 88/42/5 14/107/5 44/17/5
f 45/46/5 44/17/5 3/103/5
f 15/105/5 88/42/5 45/46/5
f 89/39/5 4/84/5 32/69/5
f 14/107/5 89/39/5 32/69/5
f 22/104/5 89/39/5 57/41/5
f 90/37/6 21/108/6 52/32/6
f 41/96/6 52/32/6 11/97/6
f 1/83/6 90/37/6 41/96/6
f 91/34/6 18/87/6 48/91/6
f 29/109/6 48/91/6 5/92/6
f 11/97/6 91/34/6 29/109/6
f 92/31/6 8/25/6 36/86/6
f 53/33/6 36/86/6 18/87/6
f 21/108/6 92/31/6 53/33/6
f 51/30/6 46/28/6 16/110/6
f 54/36/6 51/30/6 21/108/6
f 10/81/6 93/29/6 54/36/6
f 94/24/5 16/110/5 55/38/5
f 22/104/5 94/24/5 55/38/5
f 20/66/5 94/24/5 58/43/5
f 95/23/4 15/105/4 59/45/4
f 62/52/4 59/45/4 23/100/4
f 19/61/4 95/23/4 62/52/4
f 97/21/3 19/61/3 67/95/3
f 70/67/3 67/95/3 25/85/3
f 20/66/3 97/21/3 70/67/3
f 98/18/2 14/107/2 71/68/2
f 74/76/2 71/68/2 26/77/2
f 74/76/2 30/16/2 98/18/2
f 30/16/2 3/103/2 44/17/2
f 50/19/3 7/106/3 37/20/3
f 37/20/4 7/106/4 33/22/4
f 94/24/5 38/88/5 8/25/5
f 28/27/6 4/84/6 46/28/6
f 51/30/6 16/110/6 34/26/6
f 52/32/6 21/108/6 53/33/6
f 40/35/6 10/81/6 54/36/6
f 55/38/5 16/110/5 46/28/5
f 56/40/5 22/104/5 57/41/5
f 50/19/5 20/66/5 58/43/5
f 59/45/4 15/105/4 45/46/4
f 60/48/4 23/100/4 61/49/4
f 49/51/4 19/61/4 62/52/4
f 63/54/1 13/102/1 43/55/1
f 64/57/1 24/99/1 65/58/1
f 80/60/3 67/95/3 19/61/3
f 68/62/3 25/85/3 69/63/3
f 78/65/3 38/88/3 20/66/3
f 71/68/2 14/107/2 32/69/2
f 72/71/2 26/77/2 73/72/2
f 75/74/2 42/80/2 12/75/2
f 72/71/2 75/74/2 74/76/2
f 9/78/2 27/79/2 75/74/2
f 27/79/2 2/98/2 42/80/2
f 40/35/2 76/73/2 73/72/2
f 39/82/2 76/73/2 40/35/2
f 39/82/2 9/78/2 72/71/2
f 77/70/2 32/69/2 4/84/2
f 10/81/2 73/72/2 77/70/2
f 73/72/2 26/77/2 71/68/2
f 78/65/3 70/67/3 25/85/3
f 36/86/3 78/65/3 68/62/3
f 36/86/3 8/25/3 38/88/3
f 79/64/3 69/63/3 17/89/3
f 48/91/3 79/64/3 47/90/3
f 18/87/3 68/62/3 79/64/3
f 80/60/3 49/51/3 6/93/3
f 69/63/3 80/60/3 35/94/3
f 69/63/3 25/85/3 67/95/3
f 82/59/1 65/58/1 9/78/1
f 41/96/1 82/59/1 39/82/1
f 11/97/1 64/57/1 82/59/1
f 83/56/1 43/55/1 2/98/1
f 65/58/1 83/56/1 27/79/1
f 24/99/1 63/54/1 83/56/1
f 84/53/4 62/52/4 23/100/4
f 31/101/4 84/53/4 60/48/4
f 6/93/4 49/51/4 84/53/4
f 85/50/4 61/49/4 12/75/4
f 43/55/4 85/50/4 42/80/4
f 13/102/4 60/48/4 85/50/4
f 86/47/4 45/46/4 3/103/4
f 61/49/4 86/47/4 30/16/4
f 23/100/4 59/45/4 86/47/4
f 87/44/5 58/43/5 22/104/5
f 33/22/5 87/44/5 56/40/5
f 7/106/5 50/19/5 87/44/5
f 88/42/5 57/41/5 14/107/5
f 45/46/5 88/42/5 44/17/5
f 15/105/5 56/40/5 88/42/5
f 89/39/5 46/28/5 4/84/5
f 14/107/5 57/41/5 89/39/5
f 22/104/5 55/38/5 89/39/5
f 90/37/6 54/36/6 21/108/6
f 41/96/6 90/37/6 52/32/6
f 1/83/6 40/35/6 90/37/6
f 91/34/6 53/33/6 18/87/6
f 29/109/6 91/34/6 48/91/6
f 11/97/6 52/32/6 91/34/6
f 92/31/6 34/26/6 8/25/6
f 53/33/6 92/31/6 36/86/6
f 21/108/6 51/30/6 92/31/6
f 51/30/6 93/29/6 46/28/6
f 54/36/6 93/29/6 51/30/6
f 10/81/6 28/27/6 93/29/6
f 94/24/5 34/26/5 16/110/5
f 22/104/5 58/43/5 94/24/5
f 20/66/5 38/88/5 94/24/5
f 95/23/4 33/22/4 15/105/4
f 62/52/4 95/23/4 59/45/4
f 19/61/4 37/20/4 95/23/4
f 97/21/3 37/20/3 19/61/3
f 70/67/3 97/21/3 67/95/3
f 20/66/3 50/19/3 97/21/3
f 98/18/2 44/17/2 14/107/2
f 74/76/2 98/18/2 71/68/2
f 74/76/2 12/75/2 30/16/2
