# Blender v2.79 (sub 0) OBJ File: 'corvette.blend'
# www.blender.org
o disco_dx_davanti3_Untitled.019
v -1.501564 0.269456 -2.659616
v -1.501564 0.623755 -2.402203
v -1.501564 0.488425 -2.818707
v -1.501564 0.759085 -2.818706
v -1.501564 0.978054 -2.659616
v -1.501564 1.061692 -2.402203
v -1.501564 0.978054 -2.144790
v -1.501564 0.759085 -1.985700
v -1.501564 0.488425 -1.985700
v -1.501564 0.269456 -2.144790
v -1.501564 0.185817 -2.402203
vt 0.051072 0.840033
vt 0.095501 0.825597
vt 0.078531 0.802239
vt 0.095501 0.854469
vt 0.078531 0.877826
vt 0.051072 0.886748
vt 0.023614 0.877826
vt 0.006643 0.854469
vt 0.006643 0.825597
vt 0.023614 0.802239
vt 0.051072 0.793317
vn -1.0000 -0.0000 -0.0000
s 1
f 2/1/1 3/2/1 1/3/1
f 2/1/1 4/4/1 3/2/1
f 2/1/1 5/5/1 4/4/1
f 2/1/1 6/6/1 5/5/1
f 2/1/1 7/7/1 6/6/1
f 2/1/1 8/8/1 7/7/1
f 2/1/1 9/9/1 8/8/1
f 2/1/1 10/10/1 9/9/1
f 2/1/1 11/11/1 10/10/1
f 2/1/1 1/3/1 11/11/1
o disco_dx_davanti2_Untitled.013
v 1.501564 0.269456 -2.659616
v 1.501564 0.623755 -2.402203
v 1.501564 0.488425 -2.818707
v 1.501564 0.759085 -2.818706
v 1.501564 0.978054 -2.659616
v 1.501565 1.061692 -2.402203
v 1.501564 0.978054 -2.144790
v 1.501564 0.759085 -1.985700
v 1.501564 0.488425 -1.985700
v 1.501564 0.269456 -2.144790
v 1.501564 0.185817 -2.402203
vt 0.051072 0.840033
vt 0.078531 0.802239
vt 0.095501 0.825597
vt 0.095501 0.854469
vt 0.078531 0.877826
vt 0.051072 0.886748
vt 0.023614 0.877826
vt 0.006643 0.854469
vt 0.006643 0.825597
vt 0.023614 0.802239
vt 0.051072 0.793317
vn 1.0000 -0.0000 -0.0000
s 1
f 13/12/2 12/13/2 14/14/2
f 13/12/2 14/14/2 15/15/2
f 13/12/2 15/15/2 16/16/2
f 13/12/2 16/16/2 17/17/2
f 13/12/2 17/17/2 18/18/2
f 13/12/2 18/18/2 19/19/2
f 13/12/2 19/19/2 20/20/2
f 13/12/2 20/20/2 21/21/2
f 13/12/2 21/21/2 22/22/2
f 13/12/2 22/22/2 12/13/2
o disco_dx_davanti1_Untitled.021
v -1.495007 0.251585 2.022065
v -1.495007 0.571489 2.254489
v -1.495007 0.449296 1.878420
v -1.495007 0.693681 1.878420
v -1.495007 0.891392 2.022066
v -1.495008 0.966911 2.254489
v -1.495007 0.891392 2.486913
v -1.495007 0.693681 2.630558
v -1.495007 0.449296 2.630558
v -1.495007 0.251585 2.486912
v -1.495007 0.176066 2.254489
vt 0.051072 0.840033
vt 0.091188 0.826998
vt 0.075865 0.805908
vt 0.091188 0.853067
vt 0.075865 0.874157
vt 0.051072 0.882213
vt 0.026279 0.874157
vt 0.010956 0.853067
vt 0.010956 0.826998
vt 0.026279 0.805908
vt 0.051072 0.797852
vn -1.0000 -0.0000 -0.0000
s 1
f 24/23/3 25/24/3 23/25/3
f 24/23/3 26/26/3 25/24/3
f 24/23/3 27/27/3 26/26/3
f 24/23/3 28/28/3 27/27/3
f 24/23/3 29/29/3 28/28/3
f 24/23/3 30/30/3 29/29/3
f 24/23/3 31/31/3 30/30/3
f 24/23/3 32/32/3 31/31/3
f 24/23/3 33/33/3 32/32/3
f 24/23/3 23/25/3 33/33/3
o disco_dx_davanti_Untitled.040
v 1.495008 0.251585 2.022065
v 1.495008 0.571489 2.254489
v 1.495008 0.449296 1.878420
v 1.495008 0.693681 1.878420
v 1.495008 0.891392 2.022066
v 1.495009 0.966911 2.254489
v 1.495008 0.891392 2.486913
v 1.495008 0.693681 2.630558
v 1.495008 0.449296 2.630558
v 1.495008 0.251585 2.486912
v 1.495008 0.176066 2.254489
vt 0.051072 0.840033
vt 0.075865 0.805908
vt 0.091188 0.826998
vt 0.091188 0.853067
vt 0.075865 0.874157
vt 0.051072 0.882213
vt 0.026279 0.874157
vt 0.010956 0.853067
vt 0.010956 0.826998
vt 0.026279 0.805908
vt 0.051072 0.797852
vn 1.0000 -0.0000 -0.0000
s 1
f 35/34/4 34/35/4 36/36/4
f 35/34/4 36/36/4 37/37/4
f 35/34/4 37/37/4 38/38/4
f 35/34/4 38/38/4 39/39/4
f 35/34/4 39/39/4 40/40/4
f 35/34/4 40/40/4 41/41/4
f 35/34/4 41/41/4 42/42/4
f 35/34/4 42/42/4 43/43/4
f 35/34/4 43/43/4 44/44/4
f 35/34/4 44/44/4 34/35/4
